<?xml version="1.0" encoding="utf-8"?>
<!-- Generator: Adobe Illustrator 17.0.0, SVG Export Plug-In . SVG Version: 6.00 Build 0)  -->
<!DOCTYPE svg PUBLIC "-//W3C//DTD SVG 1.1//EN" "http://www.w3.org/Graphics/SVG/1.1/DTD/svg11.dtd">
<svg version="1.1" id="Layer_1" xmlns="http://www.w3.org/2000/svg" xmlns:xlink="http://www.w3.org/1999/xlink" x="0px" y="0px"
	 width="1750px" height="980px" viewBox="0 0 1750 980" enable-background="new 0 0 1750 980" xml:space="preserve">
<g>
	<rect fill-rule="evenodd" clip-rule="evenodd" fill="#5EE5B1" width="1750" height="980"/>
	<polygon fill-rule="evenodd" clip-rule="evenodd" fill="#5BCEA2" points="0,482.5 1307.3,367.6 637.7,484.7 1750,360.3 1750,0 0,0 
			"/>
</g>
<polygon fill-rule="evenodd" clip-rule="evenodd" fill="#173636" points="0,165.7 162.9,165.7 162.9,455.1 367.5,455.1 367.5,566.9 
	704.1,566.9 704.1,430 1209.6,430 1209.6,542.3 1512.1,542.3 1512.1,399 1709.7,399 1709.7,632.4 1750,632.4 1750,786.6 
	1709.7,786.6 0,786.6 "/>
<g>
	<g>
		<rect x="506" y="159.5" fill-rule="evenodd" clip-rule="evenodd" fill="#FFFFCC" width="1162" height="19.7"/>
		<g>
			<rect x="532" y="179.2" fill-rule="evenodd" clip-rule="evenodd" fill="#669999" width="1109.9" height="607.4"/>
			<rect x="760.4" y="179.2" fill-rule="evenodd" clip-rule="evenodd" fill="#336666" width="653.1" height="63.6"/>
		</g>
		<g>
			<g>
				<rect x="532" y="179.2" fill-rule="evenodd" clip-rule="evenodd" fill="#FFFFCC" width="228.4" height="607.4"/>
				<rect x="532" y="179.2" fill-rule="evenodd" clip-rule="evenodd" fill="#99CCCC" width="228.4" height="63.6"/>
			</g>
			<g>
				<rect x="1413.5" y="179.2" fill-rule="evenodd" clip-rule="evenodd" fill="#FFFFCC" width="228.4" height="607.4"/>
				<rect x="1413.5" y="179.2" fill-rule="evenodd" clip-rule="evenodd" fill="#99CCCC" width="228.4" height="63.6"/>
			</g>
		</g>
	</g>
	<g>
		<rect x="566" y="256.4" fill-rule="evenodd" clip-rule="evenodd" fill="#99CCCC" width="160.5" height="249.4"/>
		<rect x="573" y="263.4" fill-rule="evenodd" clip-rule="evenodd" fill="#9E482C" width="146.5" height="235.4"/>
		<rect x="573" y="271.8" fill-rule="evenodd" clip-rule="evenodd" fill="#D12E2E" width="141.3" height="227"/>
		<polygon fill-rule="evenodd" clip-rule="evenodd" fill="#AFFAE0" points="588.5,263.4 588.5,308.2 599,318.7 599,397.1 619,417.2 
			619,473.7 635.6,490.2 635.6,498.8 662,498.8 662,476.7 672.2,459 672.2,445.2 678.5,439 678.5,479.8 682,473.8 682,401.4 
			699.4,371.2 699.4,321.8 697.4,326.9 697.4,303.9 704,292.5 704,263.4 		"/>
		<polygon fill-rule="evenodd" clip-rule="evenodd" fill="#DB8128" points="714.2,368.7 719.5,365.7 719.5,398.4 714.2,401.4 		"/>
		<polygon fill-rule="evenodd" clip-rule="evenodd" fill="#FF9933" points="714.2,368.7 714.2,401.4 573,483 573,450.3 		"/>
		<path fill="#FFFFCC" d="M594.1,443.8l-4.8,2.8v20.7l3.3-1.9v-7.8l1.5-0.9c1.6-0.9,2.8-2.1,3.6-3.4c0.8-1.3,1.2-2.8,1.2-4.5v-2.7
			c0-1.7-0.4-2.7-1.2-3.1C596.9,442.6,595.7,442.9,594.1,443.8L594.1,443.8z M594.1,446.7c0.4-0.2,0.6-0.3,0.9-0.3
			c0.2,0,0.4,0.1,0.5,0.3c0.1,0.2,0.2,0.6,0.2,1.1v3.1c0,0.5,0,0.9-0.2,1.3c-0.1,0.3-0.3,0.7-0.5,0.9c-0.2,0.3-0.5,0.5-0.9,0.7
			l-1.5,0.9v-7L594.1,446.7z M603.4,443.1c0-0.7,0.2-1.3,0.5-1.8c0.3-0.5,0.7-0.9,1.2-1.2c0.5-0.3,0.9-0.4,1.3-0.2
			c0.3,0.1,0.5,0.6,0.5,1.3v11.2c0,0.7-0.2,1.3-0.5,1.8c-0.3,0.5-0.7,0.9-1.3,1.2c-0.5,0.3-0.9,0.4-1.2,0.2
			c-0.3-0.1-0.5-0.6-0.5-1.3V443.1z M600.1,456c0,1.1,0.2,1.9,0.6,2.5c0.4,0.6,0.9,0.8,1.7,0.8c0.7,0,1.6-0.4,2.7-1
			c1.1-0.6,2-1.3,2.7-2.2c0.7-0.8,1.3-1.8,1.7-2.7c0.3-1,0.6-2,0.6-3.1v-10.8c0-1.1-0.2-2-0.6-2.5c-0.4-0.6-0.9-0.8-1.7-0.8
			c-0.7,0-1.6,0.4-2.7,0.9c-1,0.6-2,1.4-2.7,2.2c-0.7,0.8-1.3,1.7-1.7,2.8c-0.3,1-0.6,2-0.6,3.1V456z M611.7,438.6
			c0,0.6,0.1,1.1,0.2,1.6c0.1,0.5,0.3,0.8,0.6,1.2c0.3,0.3,0.6,0.6,1.1,0.9c0.5,0.3,1,0.5,1.7,0.7c0.7,0.2,1.3,0.5,1.6,0.7
			c0.4,0.2,0.7,0.6,0.9,0.9c0.2,0.4,0.2,0.8,0.2,1.3c0,0.5-0.1,0.9-0.2,1.3c-0.1,0.4-0.3,0.7-0.6,1c-0.3,0.3-0.6,0.5-0.9,0.7
			c-0.3,0.2-0.7,0.3-0.9,0.3c-0.2,0-0.4-0.1-0.6-0.3c-0.1-0.2-0.2-0.6-0.2-1v-1.5l-3.1,1.8v1.3c0,1.1,0.2,2,0.5,2.5
			c0.4,0.6,0.9,0.8,1.6,0.8c0.7,0,1.6-0.3,2.7-0.9c1.1-0.6,2-1.3,2.7-2.1c0.7-0.8,1.3-1.8,1.6-2.7c0.3-1,0.5-2,0.5-3.1
			c0-0.6,0-1.1-0.2-1.6c-0.1-0.5-0.3-0.9-0.6-1.2c-0.3-0.4-0.6-0.6-1.1-0.9c-0.5-0.3-1-0.5-1.7-0.7c-0.7-0.2-1.3-0.5-1.7-0.7
			c-0.4-0.2-0.7-0.6-0.9-0.9c-0.1-0.4-0.2-0.8-0.2-1.3c0-0.7,0.1-1.3,0.4-1.8c0.3-0.5,0.7-0.9,1.2-1.2c0.5-0.3,0.9-0.4,1.2-0.2
			c0.3,0.2,0.4,0.6,0.4,1.3v0.9l3.1-1.8V433c0-1.1-0.2-1.9-0.5-2.5c-0.4-0.6-0.9-0.8-1.6-0.8s-1.6,0.3-2.7,0.9
			c-1,0.6-1.9,1.3-2.6,2.1c-0.7,0.8-1.3,1.7-1.6,2.7C611.9,436.4,611.7,437.4,611.7,438.6L611.7,438.6z M622.3,430.4l3.4-2v17.8
			l3.3-1.9v-17.8l3.4-2v-3l-10,5.8V430.4z M637,421.9l5.6-3.3v-3l-8.9,5.1v20.8l8.9-5.1v-3l-5.6,3.3v-6.1l4.5-2.6v-3l-4.5,2.6V421.9
			z M654.8,429.4c-0.1-0.3-0.2-0.6-0.3-1c-0.1-0.4-0.1-0.8-0.1-1.3v-3.2c0-0.7-0.1-1.3-0.2-1.8c-0.1-0.5-0.3-0.9-0.7-1.1
			c-0.3-0.2-0.7-0.3-1.3-0.2v0c0.7-0.8,1.3-1.6,1.6-2.5c0.3-0.9,0.5-1.9,0.5-2.9v-1.6c0-1-0.1-1.9-0.5-2.3c-0.4-0.5-0.9-0.7-1.6-0.7
			c-0.7,0.1-1.6,0.4-2.8,1.1l-4.9,2.8v20.8l3.3-1.9V425l1.1-0.7c0.5-0.3,0.9-0.4,1.2-0.5c0.3,0,0.5,0.1,0.7,0.5
			c0.1,0.3,0.2,0.8,0.2,1.4v3.3c0,0.4,0,0.8,0,1c0,0.2,0,0.5,0.1,0.6c0,0.1,0.1,0.3,0.1,0.4c0,0.1,0.1,0.2,0.1,0.3L654.8,429.4z
			 M649.5,414.7c0.6-0.4,1-0.4,1.3-0.2c0.2,0.2,0.4,0.6,0.4,1.4v2c0,0.6-0.1,1-0.2,1.4c-0.1,0.4-0.4,0.8-0.7,1.1
			c-0.3,0.3-0.6,0.6-1,0.8L648,422v-6.4L649.5,414.7z M664.4,406.1l5.4-3.1v-3l-8.6,5v20.7l3.3-1.9v-8.6l4.2-2.4v-3l-4.2,2.4V406.1z
			 M671.4,419.9l3.3-1.9v-20.7l-3.3,1.9V419.9z M677,416.6l8.6-5v-3l-5.4,3.1V394l-3.3,1.9V416.6z M691.6,387.5l-4.5,2.6v20.8
			l2.8-1.6v-14.7l0,0l2.4,13.3l3.1-1.8l2.2-16.1l0.1,0v14.9l3.1-1.8v-20.7l-4.5,2.6l-2.2,16l0,0L691.6,387.5z"/>
		<polygon fill-rule="evenodd" clip-rule="evenodd" fill="#336666" points="604.3,432.8 604.3,394 609.2,389.2 609.2,348.6 
			612.3,343.2 612.3,318.6 614.1,315.5 614.1,349.8 621.3,357 621.3,390.4 625.4,386.4 625.4,344.1 640.5,329 640.5,412.1 		"/>
		<polygon fill-rule="evenodd" clip-rule="evenodd" fill="#669999" points="634.1,415.7 634.1,353.2 647.1,340.1 647.1,318.2 
			653.2,312.1 653.2,284.9 655.8,286.4 655.8,322 662.1,328.3 662.1,366.4 668.9,373.1 668.9,395 		"/>
		<polygon fill-rule="evenodd" clip-rule="evenodd" fill="#6DC7A8" points="664.2,397.8 664.2,378.2 672.3,370.1 672.3,329.2 
			670.7,326.4 670.7,311.2 674.4,317.6 674.4,338.2 682,345.9 682,374.4 688.1,377.9 688.1,383.8 		"/>
		<rect x="588.5" y="263.4" fill-rule="evenodd" clip-rule="evenodd" fill="#6DC7A8" width="115.5" height="8.4"/>
	</g>
	<g>
		<rect x="1447.5" y="256.4" fill-rule="evenodd" clip-rule="evenodd" fill="#99CCCC" width="160.5" height="249.4"/>
		<rect x="1454.5" y="263.4" fill-rule="evenodd" clip-rule="evenodd" fill="#9E1818" width="146.5" height="235.4"/>
		<rect x="1454.5" y="271.8" fill-rule="evenodd" clip-rule="evenodd" fill="#D12E2E" width="141.3" height="227"/>
		<path fill-rule="evenodd" clip-rule="evenodd" fill="#F2AB79" d="M1470,263.4c0,76.2-1.7,153.2,47.1,235.4h26.4
			c38.3-59.5,42-120.1,42-235.4H1470z"/>
		<rect x="1470" y="263.4" fill-rule="evenodd" clip-rule="evenodd" fill="#CC8B5C" width="115.5" height="8.4"/>
		<polygon fill-rule="evenodd" clip-rule="evenodd" fill="#664320" points="1505.1,302.8 1492.4,308.4 1499.5,299.7 1499.5,291.9 
			1522.4,278.1 1513.1,274.4 1536.6,276.6 1553.2,278.7 1559.7,288.2 1568.3,291.4 1570.8,300.9 1572.1,309.6 1575.5,318.5 
			1573.9,323.8 1574.2,337.1 1571.4,347.2 1571.4,348.2 1569.9,360.8 1569.3,372.3 1571.4,375.9 1565.9,374.1 1561.6,376.3 
			1556.3,375.9 1556.3,355.3 		"/>
		<polygon fill-rule="evenodd" clip-rule="evenodd" fill="#FFFFCC" points="1505.1,302.8 1502.9,317 1506,327.8 1503.2,338 
			1509.7,362.7 1510.6,371.9 1521.5,375 1537.5,367.6 1552.3,355.3 1556.3,355.3 1560.7,352.2 1564,342.6 1562.8,338.9 
			1557.8,339.9 1560,321.9 1556.3,314.5 1552.6,303.4 1539.3,296.9 1532.9,300.6 1524.2,296 1515,301.6 1508.5,301.9 		"/>
		<polygon fill-rule="evenodd" clip-rule="evenodd" fill="#FFFFCC" points="1518.1,382.1 1454.5,401.6 1454.5,498.8 1601,498.8 
			1601,405.6 1559.1,385.2 1558.8,426.6 1546.8,463.3 		"/>
		<polygon fill-rule="evenodd" clip-rule="evenodd" fill="#C25E3C" points="1539.5,442.8 1543,413.3 1548.9,413.3 1553.8,441.9 
			1546.8,463.3 		"/>
		<polygon fill-rule="evenodd" clip-rule="evenodd" fill="#336666" points="1511,397.6 1504.5,454.1 1535.6,471.7 1526.7,478.7 
			1538.1,498.8 1454.5,498.8 1454.5,407.8 		"/>
		<polygon fill-rule="evenodd" clip-rule="evenodd" fill="#336666" points="1547.7,498.8 1562.8,476.6 1559,470.6 1578.5,449.4 
			1573.3,402.8 1601,411.8 1601,498.8 		"/>
		<polygon fill-rule="evenodd" clip-rule="evenodd" fill="#BD6B18" points="1595.7,368.7 1601,365.7 1601,398.4 1595.7,401.4 		"/>
		<polygon fill-rule="evenodd" clip-rule="evenodd" fill="#FF9933" points="1595.7,368.7 1595.7,401.4 1454.5,483 1454.5,450.3 		
			"/>
		<path fill="#FFFFCC" d="M1475.5,443.8l-4.8,2.8v20.7l3.3-1.9v-7.8l1.5-0.9c1.6-0.9,2.8-2.1,3.6-3.4c0.8-1.3,1.2-2.8,1.2-4.5v-2.7
			c0-1.7-0.4-2.7-1.2-3.1C1478.4,442.6,1477.1,442.9,1475.5,443.8L1475.5,443.8z M1475.5,446.7c0.3-0.2,0.6-0.3,0.9-0.3
			c0.2,0,0.4,0.1,0.5,0.3c0.1,0.2,0.2,0.6,0.2,1.1v3.1c0,0.5,0,0.9-0.2,1.3c-0.1,0.3-0.3,0.7-0.5,0.9c-0.2,0.3-0.6,0.5-0.9,0.7
			l-1.5,0.9v-7L1475.5,446.7z M1484.9,443.1c0-0.7,0.2-1.3,0.5-1.8c0.3-0.5,0.7-0.9,1.2-1.2c0.5-0.3,0.9-0.4,1.3-0.2
			c0.3,0.1,0.5,0.6,0.5,1.3v11.2c0,0.7-0.2,1.3-0.5,1.8c-0.3,0.5-0.7,0.9-1.3,1.2c-0.5,0.3-0.9,0.4-1.2,0.2
			c-0.3-0.1-0.5-0.6-0.5-1.3V443.1z M1481.6,456c0,1.1,0.2,1.9,0.6,2.5c0.4,0.6,0.9,0.8,1.7,0.8c0.7,0,1.6-0.4,2.7-1
			c1.1-0.6,2-1.3,2.7-2.2c0.7-0.8,1.3-1.8,1.6-2.7c0.4-1,0.6-2,0.6-3.1v-10.8c0-1.1-0.2-2-0.6-2.5c-0.3-0.6-0.9-0.8-1.6-0.8
			c-0.7,0-1.6,0.4-2.7,0.9c-1.1,0.6-2,1.4-2.7,2.2c-0.7,0.8-1.3,1.7-1.7,2.8c-0.4,1-0.6,2-0.6,3.1V456z M1493.2,438.6
			c0,0.6,0.1,1.1,0.2,1.6c0.1,0.5,0.3,0.8,0.6,1.2c0.3,0.3,0.6,0.6,1.1,0.9c0.5,0.3,1,0.5,1.7,0.7c0.7,0.2,1.3,0.5,1.6,0.7
			c0.4,0.2,0.7,0.6,0.9,0.9s0.2,0.8,0.2,1.3c0,0.5-0.1,0.9-0.2,1.3c-0.1,0.4-0.3,0.7-0.6,1c-0.3,0.3-0.6,0.5-0.9,0.7
			c-0.3,0.2-0.7,0.3-0.9,0.3c-0.2,0-0.5-0.1-0.6-0.3c-0.1-0.2-0.2-0.6-0.2-1v-1.5l-3.1,1.8v1.3c0,1.1,0.2,2,0.5,2.5
			c0.4,0.6,0.9,0.8,1.6,0.8c0.7,0,1.6-0.3,2.7-0.9c1.1-0.6,2-1.3,2.7-2.1c0.7-0.8,1.3-1.8,1.6-2.7c0.3-1,0.5-2,0.5-3.1
			c0-0.6,0-1.1-0.2-1.6c-0.1-0.5-0.3-0.9-0.6-1.2s-0.6-0.6-1.1-0.9c-0.5-0.3-1.1-0.5-1.7-0.7c-0.7-0.2-1.3-0.5-1.7-0.7
			c-0.4-0.2-0.7-0.6-0.9-0.9c-0.2-0.4-0.2-0.8-0.2-1.3c0-0.7,0.1-1.3,0.4-1.8c0.3-0.5,0.7-0.9,1.2-1.2c0.5-0.3,0.9-0.4,1.2-0.2
			c0.3,0.2,0.4,0.6,0.4,1.3v0.9l3.1-1.8V433c0-1.1-0.2-1.9-0.5-2.5c-0.4-0.6-0.9-0.8-1.6-0.8c-0.7,0-1.6,0.3-2.7,0.9
			c-1.1,0.6-1.9,1.3-2.7,2.1c-0.7,0.8-1.2,1.7-1.6,2.7C1493.4,436.4,1493.2,437.4,1493.2,438.6L1493.2,438.6z M1503.7,430.4l3.4-2
			v17.8l3.3-1.9v-17.8l3.4-2v-3l-10.1,5.8V430.4z M1518.5,421.9l5.6-3.3v-3l-8.9,5.1v20.8l8.9-5.1v-3l-5.6,3.3v-6.1l4.5-2.6v-3
			l-4.5,2.6V421.9z M1536.3,429.4c-0.1-0.3-0.2-0.6-0.3-1c0-0.4,0-0.8,0-1.3v-3.2c0-0.7-0.1-1.3-0.2-1.8c-0.1-0.5-0.4-0.9-0.7-1.1
			c-0.3-0.2-0.7-0.3-1.3-0.2v0c0.7-0.8,1.3-1.6,1.6-2.5c0.4-0.9,0.5-1.9,0.5-2.9v-1.6c0-1-0.2-1.9-0.5-2.3c-0.3-0.5-0.9-0.7-1.6-0.7
			c-0.7,0.1-1.6,0.4-2.8,1.1l-4.9,2.8v20.8l3.3-1.9V425l1.1-0.7c0.5-0.3,0.9-0.4,1.2-0.5c0.3,0,0.6,0.1,0.7,0.5
			c0.2,0.3,0.2,0.8,0.2,1.4v3.3c0,0.4,0,0.8,0,1c0,0.2,0,0.5,0.1,0.6c0,0.1,0.1,0.3,0.1,0.4c0,0.1,0.1,0.2,0.1,0.3L1536.3,429.4z
			 M1531,414.7c0.6-0.4,1-0.4,1.3-0.2c0.2,0.2,0.4,0.6,0.4,1.4v2c0,0.6-0.1,1-0.2,1.4c-0.1,0.4-0.4,0.8-0.7,1.1
			c-0.3,0.3-0.6,0.6-1,0.8l-1.3,0.7v-6.4L1531,414.7z M1545.9,406.1l5.4-3.1v-3l-8.6,5v20.7l3.3-1.9v-8.6l4.2-2.4v-3l-4.2,2.4V406.1
			z M1552.8,419.9l3.3-1.9v-20.7l-3.3,1.9V419.9z M1558.5,416.6l8.6-5v-3l-5.4,3.1V394l-3.3,1.9V416.6z M1573,387.5l-4.5,2.6v20.8
			l2.9-1.6v-14.7l0,0l2.4,13.3l3.1-1.8l2.2-16.1l0.1,0v14.9l3.1-1.8v-20.7l-4.6,2.6l-2.2,16l0,0L1573,387.5z"/>
	</g>
	<g>
		<rect x="829.1" y="44.2" fill-rule="evenodd" clip-rule="evenodd" fill="#FFFFCC" width="515.8" height="236.6"/>
		<rect x="836.1" y="51.2" fill-rule="evenodd" clip-rule="evenodd" fill="#669999" width="501.8" height="222.6"/>
		<rect x="836.1" y="61.7" fill-rule="evenodd" clip-rule="evenodd" fill="#99CCCC" width="487.5" height="212.1"/>
		<path fill="#669999" d="M959.2,127h21v-7.2h-13.1V76.5h-7.9V127z M991,88.2c0-1.8,0.4-3.1,1.1-3.8c0.7-0.8,1.8-1.2,3-1.1
			c1.3,0,2.3,0.4,3,1.1c0.7,0.8,1.1,2.1,1.1,3.8v27.2c0,1.8-0.4,3.1-1.1,3.8c-0.7,0.8-1.8,1.2-3,1.2s-2.3-0.4-3-1.2
			c-0.7-0.8-1.1-2-1.1-3.8V88.2z M983,114.9c0,2.7,0.5,5,1.4,6.9c0.9,1.9,2.3,3.4,4.1,4.3c1.8,1,4,1.5,6.6,1.5
			c2.6,0,4.8-0.5,6.6-1.5c1.8-1,3.2-2.5,4.1-4.3c0.9-1.9,1.4-4.2,1.4-6.9V88.7c0-2.7-0.5-5-1.4-6.9c-0.9-1.9-2.3-3.3-4.1-4.3
			c-1.8-1-4-1.5-6.6-1.5s-4.8,0.5-6.6,1.5c-1.8,1-3.2,2.4-4.1,4.3c-0.9,1.9-1.4,4.2-1.4,6.9V114.9z M1011.2,88.7
			c0,1.4,0.1,2.8,0.5,4.1c0.3,1.3,0.8,2.5,1.4,3.8c0.7,1.3,1.6,2.5,2.7,3.8c1.1,1.3,2.5,2.7,4.2,4.1c1.7,1.5,3.1,2.9,4.1,4.1
			c1,1.2,1.7,2.3,2.1,3.5c0.4,1.1,0.6,2.2,0.6,3.4c0,1.2-0.2,2.2-0.5,2.9c-0.3,0.7-0.8,1.2-1.4,1.5c-0.6,0.3-1.3,0.5-2.2,0.5
			c-0.8,0-1.6-0.2-2.2-0.5c-0.6-0.3-1-0.8-1.4-1.5c-0.3-0.7-0.5-1.7-0.5-2.9v-3.6h-7.5v3.1c0,2.7,0.5,5,1.3,6.9
			c0.9,1.9,2.2,3.4,4,4.3c1.7,1,3.9,1.5,6.5,1.5c2.6,0,4.8-0.5,6.5-1.5c1.8-1,3.1-2.5,4-4.3c0.9-1.9,1.3-4.2,1.3-6.9
			c0-1.4-0.1-2.8-0.4-4.1c-0.3-1.3-0.8-2.6-1.5-3.8c-0.7-1.2-1.5-2.5-2.7-3.8c-1.1-1.3-2.5-2.7-4.1-4.1c-1.7-1.5-3.1-2.8-4.1-4.1
			c-1-1.2-1.7-2.3-2.1-3.4c-0.4-1.1-0.6-2.3-0.6-3.5c0-1.8,0.4-3.1,1.1-3.8c0.7-0.8,1.6-1.2,2.9-1.1c1.3,0,2.2,0.4,2.9,1.1
			c0.7,0.8,1,2.1,1,3.8v2.1h7.5v-1.6c0-2.7-0.5-5-1.3-6.9c-0.9-1.9-2.2-3.3-3.9-4.3c-1.7-1-3.8-1.5-6.4-1.5c-2.6,0-4.7,0.5-6.4,1.5
			c-1.8,1-3,2.4-3.9,4.3C1011.7,83.7,1011.2,86,1011.2,88.7L1011.2,88.7z M1068,76.5h-11.6l-8.1,50.5h7.3l1.4-9.1h9.7l1.4,9.1h8
			L1068,76.5z M1061.7,85.5h0.1l3.7,25.5h-7.6L1061.7,85.5z M1096.7,127h8.2V76.5h-7.1v30.2h-0.1l-8-30.2h-9.9V127h7.1V90.5h0.1
			L1096.7,127z M1122.4,106.1h3.6v9.3c0,1.2-0.2,2.2-0.5,2.9c-0.3,0.7-0.8,1.2-1.4,1.5c-0.6,0.3-1.4,0.5-2.2,0.5
			c-0.8,0-1.6-0.2-2.2-0.5c-0.6-0.3-1.1-0.8-1.4-1.5c-0.3-0.7-0.5-1.7-0.5-2.9V88.2c0-1.8,0.4-3.1,1.1-3.8c0.7-0.8,1.8-1.2,3-1.1
			c1.3,0,2.3,0.4,3,1.1c0.7,0.8,1.1,2.1,1.1,3.8v5.4h7.5v-4.9c0-2.7-0.5-5-1.3-6.9c-0.9-1.9-2.2-3.3-4-4.3c-1.8-1-3.9-1.5-6.5-1.5
			c-2.6,0-4.8,0.5-6.5,1.5c-1.8,1-3.1,2.4-4,4.3c-0.9,1.9-1.3,4.2-1.3,6.9v26.3c0,2.7,0.5,5,1.3,6.9c0.9,1.9,2.2,3.4,4,4.3
			c1.8,1,3.9,1.5,6.5,1.5c2.6,0,4.8-0.5,6.5-1.5s3.1-2.5,4-4.3c0.9-1.9,1.3-4.2,1.3-6.9v-16h-11.1V106.1z M1146.6,83.8h13.7v-7.2
			h-21.6V127h21.6v-7.2h-13.7V105h10.9v-7.2h-10.9V83.8z M1165.2,127h21v-7.2h-13V76.5h-7.9V127z M1188.6,88.7
			c0,1.4,0.1,2.8,0.5,4.1c0.3,1.3,0.8,2.5,1.4,3.8c0.7,1.3,1.6,2.5,2.7,3.8c1.1,1.3,2.5,2.7,4.2,4.1c1.7,1.5,3,2.9,4.1,4.1
			c1,1.2,1.7,2.3,2.1,3.5c0.4,1.1,0.6,2.2,0.6,3.4c0,1.2-0.2,2.2-0.5,2.9c-0.3,0.7-0.8,1.2-1.4,1.5c-0.6,0.3-1.3,0.5-2.2,0.5
			c-0.8,0-1.6-0.2-2.2-0.5c-0.6-0.3-1.1-0.8-1.4-1.5c-0.3-0.7-0.5-1.7-0.5-2.9v-3.6h-7.5v3.1c0,2.7,0.5,5,1.3,6.9
			c0.9,1.9,2.2,3.4,4,4.3c1.8,1,3.9,1.5,6.5,1.5c2.6,0,4.8-0.5,6.5-1.5c1.8-1,3.1-2.5,4-4.3c0.9-1.9,1.3-4.2,1.3-6.9
			c0-1.4-0.1-2.8-0.5-4.1c-0.3-1.3-0.8-2.6-1.4-3.8c-0.7-1.2-1.5-2.5-2.7-3.8c-1.1-1.3-2.5-2.7-4.1-4.1c-1.8-1.5-3.1-2.8-4.1-4.1
			c-1-1.2-1.7-2.3-2.1-3.4c-0.4-1.1-0.6-2.3-0.6-3.5c0-1.8,0.3-3.1,1-3.8c0.7-0.8,1.7-1.2,2.9-1.1c1.3,0,2.2,0.4,2.9,1.1
			c0.7,0.8,1,2.1,1.1,3.8v2.1h7.5v-1.6c0-2.7-0.5-5-1.3-6.9c-0.9-1.9-2.2-3.3-3.9-4.3c-1.7-1-3.8-1.5-6.4-1.5
			c-2.6,0-4.7,0.5-6.4,1.5c-1.8,1-3,2.4-3.9,4.3C1189,83.7,1188.6,86,1188.6,88.7L1188.6,88.7z"/>
		<path fill="#669999" d="M944.2,178.2h-18.7v-5.8l-4.8-4.7h-10l-4.7,4.7v50.5l4.7,4.8h10l4.8-4.8v-5.9h18.7v13.7l-15.7,15.7h-25.4
			l-15.7-15.7v-66l15.7-15.6h19.1l3.3,3.1V149h18.7V178.2z M956.5,246.3v-18.7h4.6v-60h-4.6V149h27.9v18.7h-4.6v60h4.6v18.7H956.5z
			 M996.8,246.3v-18.7h4.6v-60h-4.6V149h23.6l15.1,41.1v-22.5h-4.7V149h27.9v18.7h-4.6v78.6h-18.1l-15.8-43.6v24.9h4.6v18.7H996.8z
			 M1071,246.3v-18.7h4.5v-60h-4.5V149h57.3v26.6h-18.7v-7.9h-15.6v20.6h6.9v-5.1h18.7V212H1101v-5h-6.9v20.7h15.6v-7.9h18.7v26.5
			H1071z M1181.5,246.3v-18.7h4.6v-39.9l-11,19.4l-11.1-19.4v39.9h4.6v18.7h-27.9v-18.7h4.7v-60h-4.7V149h22.9l11.6,20.3l11.5-20.3
			h22.8v18.7h-4.7v60h4.7v18.7H1181.5z M1284.1,227.7v18.7h-27.9v-18.7h4.3l-1-5h-13.1l-1.1,5h4.3v18.7h-27.9v-18.7h4.4l17.7-78.6
			h18.1l17.7,78.6H1284.1z M1256.6,209.9l-3.6-16l-3.7,16H1256.6z"/>
		<path fill="#FFFFCC" d="M964.5,121h21v-7.2h-13.1V70.6h-7.9V121z M996.2,82.1c0-1.8,0.4-3,1.1-3.9c0.7-0.8,1.8-1.2,3-1.1
			c1.3,0,2.3,0.3,3,1.1c0.7,0.8,1.1,2.1,1.1,3.9v27.3c0,1.8-0.4,3-1.1,3.9c-0.7,0.8-1.7,1.2-3,1.1c-1.3,0-2.3-0.4-3-1.1
			c-0.7-0.8-1.1-2.1-1.1-3.9V82.1z M988.3,108.9c0,2.7,0.5,5,1.4,6.9c0.9,1.9,2.3,3.3,4.1,4.3c1.8,1,4,1.5,6.6,1.5
			c2.6,0,4.8-0.5,6.6-1.5c1.8-1,3.1-2.4,4.1-4.3c0.9-1.9,1.4-4.2,1.4-6.9V82.7c0-2.7-0.5-5-1.4-6.9c-0.9-1.9-2.2-3.3-4.1-4.3
			c-1.8-1-4-1.5-6.6-1.5c-2.6,0-4.8,0.5-6.6,1.5c-1.8,1-3.1,2.4-4.1,4.3c-0.9,1.9-1.4,4.2-1.4,6.9V108.9z M1016.5,82.7
			c0,1.4,0.1,2.8,0.4,4.1c0.3,1.3,0.8,2.6,1.4,3.8c0.7,1.2,1.6,2.5,2.7,3.8c1.1,1.3,2.5,2.7,4.2,4.1c1.7,1.5,3.1,2.8,4.1,4
			s1.7,2.3,2.1,3.5c0.4,1.1,0.6,2.2,0.6,3.5c0,1.2-0.1,2.1-0.5,2.9c-0.4,0.7-0.8,1.2-1.4,1.6c-0.6,0.3-1.4,0.5-2.2,0.5
			c-0.8,0-1.6-0.1-2.2-0.5c-0.6-0.3-1.1-0.9-1.4-1.6c-0.3-0.7-0.5-1.7-0.5-2.9v-3.6h-7.5v3.1c0,2.7,0.5,5,1.4,6.9
			c0.9,1.9,2.2,3.3,4,4.3c1.7,1,3.9,1.5,6.5,1.5c2.6,0,4.8-0.5,6.5-1.5c1.8-1,3.1-2.4,4-4.3c0.9-1.9,1.3-4.2,1.3-6.9
			c0-1.4-0.1-2.8-0.4-4.1c-0.3-1.3-0.8-2.6-1.5-3.8c-0.7-1.3-1.5-2.5-2.7-3.8c-1.1-1.3-2.5-2.7-4.2-4.1c-1.7-1.5-3.1-2.8-4.1-4
			c-1-1.2-1.7-2.3-2.1-3.5c-0.4-1.1-0.6-2.2-0.6-3.5c0-1.8,0.3-3,1-3.9c0.7-0.8,1.6-1.2,2.9-1.1c1.3,0,2.3,0.3,2.9,1.1
			c0.7,0.8,1,2.1,1,3.9v2.1h7.5v-1.6c0-2.7-0.5-5-1.3-6.9c-0.9-1.9-2.2-3.3-3.9-4.3c-1.8-1-3.9-1.5-6.5-1.5c-2.6,0-4.7,0.5-6.4,1.5
			c-1.7,1-3,2.4-3.9,4.3C1016.9,77.7,1016.5,79.9,1016.5,82.7L1016.5,82.7z M1073.2,70.6h-11.6l-8.1,50.4h7.3l1.4-9.1h9.8l1.4,9.1h8
			L1073.2,70.6z M1066.9,79.5h0.2l3.7,25.5h-7.7L1066.9,79.5z M1101.9,121h8.2V70.6h-7.1v30.2h-0.1l-8-30.2h-10V121h7.1V84.5h0.1
			L1101.9,121z M1127.7,100.1h3.6v9.3c0,1.2-0.2,2.1-0.5,2.9c-0.3,0.7-0.8,1.2-1.4,1.6c-0.6,0.3-1.4,0.5-2.2,0.5
			c-0.8,0-1.6-0.1-2.2-0.5c-0.6-0.3-1.1-0.9-1.4-1.6c-0.3-0.7-0.5-1.7-0.5-2.9V82.1c0-1.8,0.4-3,1.1-3.9c0.7-0.8,1.8-1.2,3-1.1
			c1.3,0,2.3,0.3,3,1.1c0.7,0.8,1.1,2.1,1.1,3.9v5.4h7.5v-4.9c0-2.7-0.5-5-1.3-6.9c-0.9-1.9-2.2-3.3-4-4.3c-1.8-1-4-1.5-6.5-1.5
			c-2.6,0-4.8,0.5-6.5,1.5s-3.1,2.4-4,4.3c-0.9,1.9-1.3,4.2-1.3,6.9v26.2c0,2.7,0.5,5,1.3,6.9c0.9,1.9,2.2,3.3,4,4.3
			c1.8,1,3.9,1.5,6.5,1.5s4.8-0.5,6.5-1.5c1.7-1,3-2.4,4-4.3c0.9-1.9,1.3-4.2,1.3-6.9v-16h-11.1V100.1z M1151.8,77.8h13.7v-7.2
			h-21.6V121h21.6v-7.2h-13.7V99h10.9v-7.2h-10.9V77.8z M1170.4,121h21v-7.2h-13.1V70.6h-7.9V121z M1193.8,82.7
			c0,1.4,0.1,2.8,0.4,4.1c0.3,1.3,0.8,2.6,1.4,3.8c0.7,1.2,1.6,2.5,2.7,3.8c1.1,1.3,2.5,2.7,4.2,4.1c1.7,1.5,3.1,2.8,4.1,4
			s1.7,2.3,2.1,3.5c0.4,1.1,0.6,2.2,0.6,3.5c0,1.2-0.1,2.1-0.5,2.9c-0.3,0.7-0.8,1.2-1.4,1.6c-0.6,0.3-1.3,0.5-2.2,0.5
			c-0.8,0-1.6-0.1-2.2-0.5c-0.6-0.3-1.1-0.9-1.4-1.6c-0.4-0.7-0.5-1.7-0.5-2.9v-3.6h-7.5v3.1c0,2.7,0.5,5,1.3,6.9
			c0.9,1.9,2.2,3.3,4,4.3c1.8,1,3.9,1.5,6.5,1.5s4.8-0.5,6.5-1.5c1.8-1,3-2.4,4-4.3c0.9-1.9,1.3-4.2,1.3-6.9c0-1.4-0.1-2.8-0.4-4.1
			c-0.3-1.3-0.8-2.6-1.5-3.8c-0.7-1.3-1.5-2.5-2.7-3.8c-1.1-1.3-2.5-2.7-4.2-4.1c-1.7-1.5-3.1-2.8-4.1-4c-1-1.2-1.7-2.3-2.1-3.5
			c-0.4-1.1-0.6-2.2-0.6-3.5c0-1.8,0.3-3,1.1-3.9c0.7-0.8,1.6-1.2,2.9-1.1c1.3,0,2.3,0.3,2.9,1.1c0.7,0.8,1,2.1,1.1,3.9v2.1h7.5
			v-1.6c0-2.7-0.5-5-1.3-6.9c-0.9-1.9-2.2-3.3-3.9-4.3c-1.8-1-3.9-1.5-6.5-1.5c-2.6,0-4.7,0.5-6.4,1.5c-1.8,1-3,2.4-3.9,4.3
			C1194.3,77.7,1193.8,79.9,1193.8,82.7L1193.8,82.7z"/>
		<path fill="#FFFFCC" d="M948.5,173.3h-18.7v-5.8l-4.8-4.7h-10l-4.7,4.7v50.5l4.7,4.8h10l4.8-4.8V212h18.7v13.7l-15.7,15.7h-25.4
			l-15.7-15.7v-66l15.7-15.6h19.1l3.3,3.1v-3.1h18.7V173.3z M960.9,241.4v-18.7h4.5v-60h-4.5v-18.7h27.9v18.7h-4.5v60h4.5v18.7
			H960.9z M1001.1,241.4v-18.7h4.6v-60h-4.6v-18.7h23.6l15.1,41.1v-22.5h-4.7v-18.7h27.9v18.7h-4.6v78.6h-18.2l-15.8-43.6v24.9h4.5
			v18.7H1001.1z M1075.3,241.4v-18.7h4.6v-60h-4.6v-18.7h57.3v26.6h-18.7v-7.9h-15.5v20.6h6.9v-5.1h18.7v28.8h-18.7v-5h-6.9v20.7
			h15.5v-7.9h18.7v26.6H1075.3z M1185.8,241.4v-18.7h4.6v-39.9l-11,19.4l-11.1-19.4v39.9h4.6v18.7H1145v-18.7h4.7v-60h-4.7v-18.7
			h22.8l11.6,20.3l11.5-20.3h22.9v18.7h-4.7v60h4.7v18.7H1185.8z M1288.4,222.7v18.7h-27.9v-18.7h4.3l-1-5h-13.1l-1.1,5h4.3v18.7
			h-27.9v-18.7h4.4l17.6-78.6h18.2l17.6,78.6H1288.4z M1260.9,205l-3.6-16l-3.7,16H1260.9z"/>
		<path fill-rule="evenodd" clip-rule="evenodd" fill="#D12E2E" d="M1284.9,226.2h-3.7l-1.4-6.4h-11.9l1.3,6.4h-5.1v1.5h20.9V226.2z
			 M1279.2,217.4l-1.8-7.9h-40.4l-1.8,7.9h11.9l0.7-3.2h18.8l0.6,3.2H1279.2z M1276.9,207l-1.8-7.9h-11.9l1.7,7.9H1276.9z
			 M1274.5,196.7l-1.8-7.8h-11.9l1.8,7.8H1274.5z M1272.2,186.3l-1.8-7.9h-11.9l1.8,7.9H1272.2z M1269.9,176l-1.8-7.9h-21.8
			l-1.8,7.9h12.1l0.7-2.9l0.6,2.9H1269.9z M1267.6,165.7l-1.8-7.9h-17.1l-1.8,7.9H1267.6z M1265.3,155.3l-1.7-7.7H1251l-1.7,7.7
			H1265.3z M1244,178.5l-1.8,7.9h12l1.8-7.9H1244z M1241.7,188.8l-1.8,7.8h12l1.8-7.8H1241.7z M1239.4,199.2l-1.8,7.9h11.9l1.8-7.9
			H1239.4z M1234.8,219.8l-1.4,6.4h-3.7v1.5h20.9v-1.5h-5.2l1.4-6.4H1234.8z M1229.6,230.2v7.7h20.9v-7.7H1229.6z M1264,230.2v7.7
			h20.9v-7.7H1264z"/>
		<path fill-rule="evenodd" clip-rule="evenodd" fill="#D12E2E" d="M1189.3,237.9h20.9v-7.7h-20.9V237.9z M1210.2,227.7v-1.5h-4.7
			v-6.4h-11.7v6.4h-4.5v1.5H1210.2z M1205.5,217.4v-7.9h-11.7v7.9H1205.5z M1205.5,207v-7.9h-11.7v7.9H1205.5z M1205.5,196.7v-7.8
			h-11.7v7.8H1205.5z M1205.5,186.3v-7.9h-11.7v7.9H1205.5z M1205.5,176v-7.9h-24.3l-1.9,3.3l-1.9-3.3h-24.4v7.9h11.7v-6.3l3.6,6.3
			h21.9l3.6-6.4v6.4H1205.5z M1205.5,165.7v-6.4h4.7v-1.5h-23.1l-4.4,7.9H1205.5z M1210.2,155.3v-7.7h-17.3l-4.4,7.7H1210.2z
			 M1176.1,165.7l-4.5-7.9h-23.1v1.5h4.7v6.4H1176.1z M1170.2,155.3l-4.4-7.7h-17.3v7.7H1170.2z M1153.1,178.5v7.9h11.7v-7.9H1153.1
			z M1153.1,188.8v7.8h11.7v-7.8H1153.1z M1153.1,199.2v7.9h11.7v-7.9H1153.1z M1153.1,209.5v7.9h11.7v-7.9H1153.1z M1153.1,219.8
			v6.4h-4.7v1.5h20.9v-1.5h-4.5v-6.4H1153.1z M1148.5,230.2v7.7h20.9v-7.7H1148.5z M1169.8,178.5l4.5,7.9h10.1l4.4-7.9H1169.8z
			 M1175.7,188.8l3.7,6.4l3.6-6.4H1175.7z"/>
		<path fill-rule="evenodd" clip-rule="evenodd" fill="#D12E2E" d="M1078.8,237.9h50.3v-7.7h-50.3V237.9z M1129.1,227.7v-7.9h-11.7
			v6.4h-22.5v-6.4h-11.5v6.4h-4.6v1.5H1129.1z M1094.9,217.4v-7.9h-11.5v7.9H1094.9z M1094.9,207v-7.9h-11.5v7.9H1094.9z
			 M1108.8,199.2v4.4h11.7v-4.4H1108.8z M1120.5,196.7v-7.8h-37.1v7.8H1120.5z M1120.5,186.3v-4.6h-11.7v4.6H1120.5z M1094.9,186.3
			v-7.9h-11.5v7.9H1094.9z M1094.9,176v-7.9h-11.5v7.9H1094.9z M1094.9,165.7v-6.4h22.5v6.4h11.7v-7.9h-50.3v1.5h4.6v6.4H1094.9z
			 M1129.1,155.3v-7.7h-50.3v7.7H1129.1z"/>
		<path fill-rule="evenodd" clip-rule="evenodd" fill="#D12E2E" d="M1004.6,237.9h20.9v-7.7h-20.9V237.9z M1025.5,227.7v-1.5h-4.5
			v-6.4h-11.8v6.4h-4.5v1.5H1025.5z M1021,217.4v-7.9h-11.8v7.9H1021z M1021,207v-7.9h-11.8v7.9H1021z M1021,196.7v-7.8h-11.8v7.8
			H1021z M1021,186.3v-7.9h-11.8v7.9H1021z M1021.2,178.5l2.8,7.9h12.4l-2.9-7.9H1021.2z M1024.9,188.8l2.8,7.8h12.5l-2.9-7.8
			H1024.9z M1028.7,199.2l2.9,7.9h23.4v-7.9h-11.7v5.8l-2.1-5.8H1028.7z M1032.4,209.5l2.9,7.9h19.6v-7.9H1032.4z M1036.1,219.8
			l2.9,7.9h15.9v-7.9H1036.1z M1039.9,230.2l2.8,7.7h12.2v-7.7H1039.9z M1054.9,196.7v-7.8h-11.7v7.8H1054.9z M1054.9,186.3v-7.9
			h-11.7v7.9H1054.9z M1054.9,176v-7.9h-11.7v7.9H1054.9z M1054.9,165.7v-6.4h4.6v-1.5h-20.9v1.5h4.7v6.4H1054.9z M1059.5,155.3
			v-7.7h-20.9v7.7H1059.5z M1032.6,176l-2.9-7.9h-20.6v7.9H1032.6z M1028.9,165.7l-2.9-7.9h-21.4v1.5h4.5v6.4H1028.9z M1025.1,155.3
			l-2.8-7.7h-17.6v7.7H1025.1z"/>
		<path fill-rule="evenodd" clip-rule="evenodd" fill="#D12E2E" d="M964.4,237.9h20.9v-7.7h-20.9V237.9z M985.3,227.7v-1.5h-4.5
			v-6.4h-11.8v6.4h-4.6v1.5H985.3z M980.7,217.4v-7.9h-11.8v7.9H980.7z M980.7,207v-7.9h-11.8v7.9H980.7z M980.7,196.7v-7.8h-11.8
			v7.8H980.7z M980.7,186.3v-7.9h-11.8v7.9H980.7z M980.7,176v-7.9h-11.8v7.9H980.7z M980.7,165.7v-6.4h4.5v-1.5h-20.9v1.5h4.6v6.4
			H980.7z M985.3,155.3v-7.7h-20.9v7.7H985.3z"/>
		<path fill-rule="evenodd" clip-rule="evenodd" fill="#D12E2E" d="M945,169.8v-1.6h-11.7v1.6H945z M945,165.7v-7.9h-46.4l-3.4,3.3
			v4.5h12l6.4-6.4h12.9l6.6,6.4H945z M945,155.3v-7.7h-11.7v7.6l-8.2-7.6h-16.3l-7.8,7.7H945z M895.2,168.1v7.9h11.7v-7.9H895.2z
			 M895.2,178.5v7.9h11.7v-7.9H895.2z M895.2,188.8v7.8h11.7v-7.8H895.2z M895.2,199.2v7.9h11.7v-7.9H895.2z M895.2,209.5v7.9h11.7
			v-7.9H895.2z M895.2,219.8v4.4l3.5,3.4h42.9l3.4-3.4v-4.4h-12.1l-6.4,6.4h-12.9l-6.3-6.4H895.2z M901.1,230.2l7.7,7.7h22.5
			l7.7-7.7H901.1z M945,217.4v-1.9h-11.7v1.9H945z"/>
	</g>
	<g>
		<g>
			<polygon fill-rule="evenodd" clip-rule="evenodd" fill="#336666" points="798.6,586.9 811.4,576.3 883.5,576.3 883.5,599.2 
				870.7,609.9 798.6,609.9 			"/>
			<path fill-rule="evenodd" clip-rule="evenodd" fill="#173636" d="M822.5,576.3h49.8v-75.6c0-13.7-11.2-24.9-24.9-24.9l0,0
				c-13.7,0-24.9,11.2-24.9,24.9V576.3z"/>
			<rect x="811.4" y="576.3" fill-rule="evenodd" clip-rule="evenodd" fill="#FFFFCC" width="72.1" height="22.9"/>
		</g>
		<g>
			<polygon fill-rule="evenodd" clip-rule="evenodd" fill="#336666" points="918.4,586.9 931.2,576.3 1003.2,576.3 1003.2,599.2 
				990.4,609.9 918.4,609.9 			"/>
			<path fill-rule="evenodd" clip-rule="evenodd" fill="#173636" d="M942.3,576.3h49.8v-75.6c0-13.7-11.2-24.9-24.9-24.9l0,0
				c-13.7,0-24.9,11.2-24.9,24.9V576.3z"/>
			<rect x="931.2" y="576.3" fill-rule="evenodd" clip-rule="evenodd" fill="#FFFFCC" width="72.1" height="22.9"/>
		</g>
		<g>
			<polygon fill-rule="evenodd" clip-rule="evenodd" fill="#336666" points="1038.1,586.9 1050.9,576.3 1123,576.3 1123,599.2 
				1110.2,609.9 1038.1,609.9 			"/>
			<path fill-rule="evenodd" clip-rule="evenodd" fill="#173636" d="M1062.1,576.3h49.8v-75.6c0-13.7-11.2-24.9-24.9-24.9l0,0
				c-13.7,0-24.9,11.2-24.9,24.9V576.3z"/>
			<rect x="1050.9" y="576.3" fill-rule="evenodd" clip-rule="evenodd" fill="#FFFFCC" width="72.1" height="22.9"/>
		</g>
		<g>
			<polygon fill-rule="evenodd" clip-rule="evenodd" fill="#336666" points="1157.9,586.9 1170.7,576.3 1242.8,576.3 1242.8,599.2 
				1230,609.9 1157.9,609.9 			"/>
			<path fill-rule="evenodd" clip-rule="evenodd" fill="#173636" d="M1181.8,576.3h49.8v-75.6c0-13.7-11.2-24.9-24.9-24.9l0,0
				c-13.7,0-24.9,11.2-24.9,24.9V576.3z"/>
			<rect x="1170.7" y="576.3" fill-rule="evenodd" clip-rule="evenodd" fill="#FFFFCC" width="72.1" height="22.9"/>
		</g>
		<g>
			<polygon fill-rule="evenodd" clip-rule="evenodd" fill="#336666" points="1277.7,586.9 1290.5,576.3 1362.6,576.3 1362.6,599.2 
				1349.7,609.9 1277.7,609.9 			"/>
			<path fill-rule="evenodd" clip-rule="evenodd" fill="#173636" d="M1301.6,576.3h49.8v-75.6c0-13.7-11.2-24.9-24.9-24.9l0,0
				c-13.7,0-24.9,11.2-24.9,24.9V576.3z"/>
			<rect x="1290.5" y="576.3" fill-rule="evenodd" clip-rule="evenodd" fill="#FFFFCC" width="72.1" height="22.9"/>
		</g>
		<g>
			<polygon fill-rule="evenodd" clip-rule="evenodd" fill="#336666" points="798.6,407.1 811.4,396.5 883.5,396.5 883.5,419.4 
				870.7,430 798.6,430 			"/>
			<path fill-rule="evenodd" clip-rule="evenodd" fill="#173636" d="M822.5,396.5h49.8v-75.6c0-13.7-11.2-24.9-24.9-24.9l0,0
				c-13.7,0-24.9,11.2-24.9,24.9V396.5z"/>
			<rect x="811.4" y="396.5" fill-rule="evenodd" clip-rule="evenodd" fill="#FFFFCC" width="72.1" height="22.9"/>
		</g>
		<g>
			<polygon fill-rule="evenodd" clip-rule="evenodd" fill="#336666" points="918.4,407.1 931.2,396.5 1003.2,396.5 1003.2,419.4 
				990.4,430 918.4,430 			"/>
			<path fill-rule="evenodd" clip-rule="evenodd" fill="#173636" d="M942.3,396.5h49.8v-75.6c0-13.7-11.2-24.9-24.9-24.9l0,0
				c-13.7,0-24.9,11.2-24.9,24.9V396.5z"/>
			<rect x="931.2" y="396.5" fill-rule="evenodd" clip-rule="evenodd" fill="#FFFFCC" width="72.1" height="22.9"/>
		</g>
		<g>
			<polygon fill-rule="evenodd" clip-rule="evenodd" fill="#336666" points="1038.1,407.1 1050.9,396.5 1123,396.5 1123,419.4 
				1110.2,430 1038.1,430 			"/>
			<path fill-rule="evenodd" clip-rule="evenodd" fill="#173636" d="M1062.1,396.5h49.8v-75.6c0-13.7-11.2-24.9-24.9-24.9l0,0
				c-13.7,0-24.9,11.2-24.9,24.9V396.5z"/>
			<rect x="1050.9" y="396.5" fill-rule="evenodd" clip-rule="evenodd" fill="#FFFFCC" width="72.1" height="22.9"/>
		</g>
		<g>
			<polygon fill-rule="evenodd" clip-rule="evenodd" fill="#336666" points="1157.9,407.1 1170.7,396.5 1242.8,396.5 1242.8,419.4 
				1230,430 1157.9,430 			"/>
			<path fill-rule="evenodd" clip-rule="evenodd" fill="#173636" d="M1181.8,396.5h49.8v-75.6c0-13.7-11.2-24.9-24.9-24.9l0,0
				c-13.7,0-24.9,11.2-24.9,24.9V396.5z"/>
			<rect x="1170.7" y="396.5" fill-rule="evenodd" clip-rule="evenodd" fill="#FFFFCC" width="72.1" height="22.9"/>
		</g>
		<g>
			<polygon fill-rule="evenodd" clip-rule="evenodd" fill="#336666" points="1277.7,407.1 1290.5,396.5 1362.6,396.5 1362.6,419.4 
				1349.7,430 1277.7,430 			"/>
			<path fill-rule="evenodd" clip-rule="evenodd" fill="#173636" d="M1301.6,396.5h49.8v-75.6c0-13.7-11.2-24.9-24.9-24.9l0,0
				c-13.7,0-24.9,11.2-24.9,24.9V396.5z"/>
			<rect x="1290.5" y="396.5" fill-rule="evenodd" clip-rule="evenodd" fill="#FFFFCC" width="72.1" height="22.9"/>
		</g>
	</g>
	<g>
		<rect x="861.2" y="628.3" fill-rule="evenodd" clip-rule="evenodd" fill="#FFFFCC" width="451.5" height="22.9"/>
		<rect x="1175.9" y="651.2" fill-rule="evenodd" clip-rule="evenodd" fill="#173636" width="102.1" height="135.4"/>
		<rect x="1175.9" y="651.2" fill-rule="evenodd" clip-rule="evenodd" fill="#FFFFCC" width="4.5" height="135.4"/>
		<rect x="1273.5" y="651.2" fill-rule="evenodd" clip-rule="evenodd" fill="#FFFFCC" width="4.5" height="135.4"/>
		<rect x="1175.9" y="651.2" fill-rule="evenodd" clip-rule="evenodd" fill="#0D2121" width="102.1" height="20.3"/>
		<rect x="1175.9" y="651.2" fill-rule="evenodd" clip-rule="evenodd" fill="#99CCCC" width="4.5" height="20.3"/>
		<rect x="1273.5" y="651.2" fill-rule="evenodd" clip-rule="evenodd" fill="#99CCCC" width="4.5" height="20.3"/>
		<rect x="1035.9" y="651.2" fill-rule="evenodd" clip-rule="evenodd" fill="#173636" width="102.2" height="135.4"/>
		<rect x="1035.9" y="651.2" fill-rule="evenodd" clip-rule="evenodd" fill="#FFFFCC" width="4.6" height="135.4"/>
		<rect x="1133.5" y="651.2" fill-rule="evenodd" clip-rule="evenodd" fill="#FFFFCC" width="4.6" height="135.4"/>
		<rect x="1035.9" y="651.2" fill-rule="evenodd" clip-rule="evenodd" fill="#0D2121" width="102.2" height="20.3"/>
		<rect x="1035.9" y="651.2" fill-rule="evenodd" clip-rule="evenodd" fill="#99CCCC" width="4.6" height="20.3"/>
		<rect x="1133.5" y="651.2" fill-rule="evenodd" clip-rule="evenodd" fill="#99CCCC" width="4.6" height="20.3"/>
		<rect x="895.9" y="651.2" fill-rule="evenodd" clip-rule="evenodd" fill="#173636" width="102.1" height="135.4"/>
		<rect x="895.9" y="651.2" fill-rule="evenodd" clip-rule="evenodd" fill="#FFFFCC" width="4.5" height="135.4"/>
		<rect x="993.5" y="651.2" fill-rule="evenodd" clip-rule="evenodd" fill="#FFFFCC" width="4.5" height="135.4"/>
		<rect x="895.9" y="651.2" fill-rule="evenodd" clip-rule="evenodd" fill="#0D2121" width="102.1" height="20.3"/>
		<rect x="895.9" y="651.2" fill-rule="evenodd" clip-rule="evenodd" fill="#99CCCC" width="4.5" height="20.3"/>
		<rect x="993.5" y="651.2" fill-rule="evenodd" clip-rule="evenodd" fill="#99CCCC" width="4.5" height="20.3"/>
	</g>
</g>
<g>
	<g>
		<rect y="401.8" fill-rule="evenodd" clip-rule="evenodd" fill="#336666" width="325.9" height="384.8"/>
		<rect y="401.8" fill-rule="evenodd" clip-rule="evenodd" fill="#173636" width="325.9" height="53.3"/>
		<rect y="378.8" fill-rule="evenodd" clip-rule="evenodd" fill="#FFFFCC" width="351.2" height="23"/>
		<polygon fill-rule="evenodd" clip-rule="evenodd" fill="#173636" points="183.2,586.9 196,576.3 268,576.3 268,599.2 255.2,609.9 
			183.2,609.9 		"/>
		<path fill-rule="evenodd" clip-rule="evenodd" fill="#173636" d="M207.1,576.3h49.8v-75.6c0-13.7-11.2-24.9-24.9-24.9l0,0
			c-13.7,0-24.9,11.2-24.9,24.9V576.3z"/>
		<rect x="196" y="576.3" fill-rule="evenodd" clip-rule="evenodd" fill="#FFFFCC" width="72.1" height="22.9"/>
		<polygon fill-rule="evenodd" clip-rule="evenodd" fill="#173636" points="42.4,586.9 55.2,576.3 127.3,576.3 127.3,599.2 
			114.5,609.9 42.4,609.9 		"/>
		<path fill-rule="evenodd" clip-rule="evenodd" fill="#173636" d="M66.3,576.3h49.8v-75.6c0-13.7-11.2-24.9-24.9-24.9l0,0
			c-13.7,0-24.9,11.2-24.9,24.9V576.3z"/>
		<rect x="55.2" y="576.3" fill-rule="evenodd" clip-rule="evenodd" fill="#FFFFCC" width="72.1" height="22.9"/>
		<rect y="628.3" fill-rule="evenodd" clip-rule="evenodd" fill="#FFFFCC" width="238.1" height="22.9"/>
		<rect x="115.8" y="651.2" fill-rule="evenodd" clip-rule="evenodd" fill="#173636" width="102.1" height="135.4"/>
		<rect y="651.2" fill-rule="evenodd" clip-rule="evenodd" fill="#173636" width="102.2" height="135.4"/>
		<rect x="97.6" y="651.2" fill-rule="evenodd" clip-rule="evenodd" fill="#FFFFCC" width="4.6" height="135.4"/>
		<rect x="115.8" y="651.2" fill-rule="evenodd" clip-rule="evenodd" fill="#FFFFCC" width="4.5" height="135.4"/>
		<rect x="213.4" y="651.2" fill-rule="evenodd" clip-rule="evenodd" fill="#FFFFCC" width="4.5" height="135.4"/>
		<rect x="115.8" y="651.2" fill-rule="evenodd" clip-rule="evenodd" fill="#0D2121" width="102.1" height="20.3"/>
		<rect y="651.2" fill-rule="evenodd" clip-rule="evenodd" fill="#0D2121" width="102.2" height="20.3"/>
		<rect x="97.6" y="651.2" fill-rule="evenodd" clip-rule="evenodd" fill="#99CCCC" width="4.6" height="20.3"/>
		<rect x="115.8" y="651.2" fill-rule="evenodd" clip-rule="evenodd" fill="#99CCCC" width="4.5" height="20.3"/>
		<rect x="213.4" y="651.2" fill-rule="evenodd" clip-rule="evenodd" fill="#99CCCC" width="4.5" height="20.3"/>
		<rect x="289" y="720.2" fill-rule="evenodd" clip-rule="evenodd" fill="#669999" width="27.2" height="7.7"/>
		<rect x="257.8" y="720.2" fill-rule="evenodd" clip-rule="evenodd" fill="#669999" width="27.2" height="7.7"/>
		<rect x="273.7" y="731.7" fill-rule="evenodd" clip-rule="evenodd" fill="#669999" width="27.2" height="7.7"/>
		<rect x="289" y="466.9" fill-rule="evenodd" clip-rule="evenodd" fill="#669999" width="27.2" height="7.7"/>
		<rect x="257.8" y="466.9" fill-rule="evenodd" clip-rule="evenodd" fill="#669999" width="27.2" height="7.7"/>
		<rect x="273.7" y="478.3" fill-rule="evenodd" clip-rule="evenodd" fill="#669999" width="27.2" height="7.7"/>
		<rect x="289" y="522" fill-rule="evenodd" clip-rule="evenodd" fill="#669999" width="27.2" height="7.7"/>
		<rect x="138" y="510.6" fill-rule="evenodd" clip-rule="evenodd" fill="#669999" width="27.2" height="7.7"/>
		<rect x="153.8" y="522" fill-rule="evenodd" clip-rule="evenodd" fill="#669999" width="27.2" height="7.7"/>
		<rect x="11.1" y="565.7" fill-rule="evenodd" clip-rule="evenodd" fill="#669999" width="27.2" height="7.7"/>
		<rect y="482.5" fill-rule="evenodd" clip-rule="evenodd" fill="#669999" width="21.8" height="7.7"/>
	</g>
	<g>
		<rect x="108.7" y="264.8" fill-rule="evenodd" clip-rule="evenodd" fill="#FFFFCC" width="194.9" height="93.2"/>
		<rect x="114.7" y="270.9" fill-rule="evenodd" clip-rule="evenodd" fill="#336666" width="182.8" height="81.1"/>
		<rect x="114.7" y="274.7" fill-rule="evenodd" clip-rule="evenodd" fill="#669999" width="177.6" height="77.3"/>
		<rect x="202.7" y="358" fill-rule="evenodd" clip-rule="evenodd" fill="#336666" width="6.9" height="20.8"/>
		<rect x="169.1" y="358" fill-rule="evenodd" clip-rule="evenodd" fill="#336666" width="6.9" height="20.8"/>
		<rect x="135.5" y="358" fill-rule="evenodd" clip-rule="evenodd" fill="#336666" width="6.9" height="20.8"/>
		<rect x="269.9" y="358" fill-rule="evenodd" clip-rule="evenodd" fill="#336666" width="6.9" height="20.8"/>
		<rect x="236.3" y="358" fill-rule="evenodd" clip-rule="evenodd" fill="#336666" width="6.9" height="20.8"/>
		<path fill="#336666" d="M158.7,311.4h4.3l-5.9-14.9l5.9-12h-4.2l-5.4,11.6h-0.1v-11.6H149v26.8h4.2v-8.3l1.3-2.5L158.7,311.4z
			 M174.3,284.6h-6.2l-4.3,26.8h3.8l0.7-4.9h5.2l0.7,4.9h4.3L174.3,284.6z M170.9,289.3L170.9,289.3l2.1,13.6h-4.1L170.9,289.3z
			 M189.5,311.4h4.3v-26.8h-3.8v16.1H190l-4.2-16.1h-5.3v26.8h3.8V292h0.1L189.5,311.4z M205.1,301.4v3.8c0,0.6-0.1,1.1-0.3,1.5
			s-0.4,0.7-0.7,0.8c-0.4,0.2-0.7,0.2-1.2,0.2c-0.4,0-0.8-0.1-1.2-0.2c-0.3-0.2-0.6-0.5-0.7-0.8s-0.3-0.9-0.3-1.5v-14.5
			c0-0.9,0.2-1.6,0.6-2c0.4-0.4,0.9-0.6,1.6-0.6c0.7,0,1.2,0.2,1.6,0.6c0.4,0.4,0.6,1.1,0.6,2v2.9h4V291c0-1.4-0.2-2.7-0.7-3.7
			c-0.5-1-1.2-1.8-2.1-2.3c-0.9-0.5-2.1-0.8-3.5-0.8c-1.4,0-2.5,0.3-3.5,0.8s-1.6,1.3-2.1,2.3c-0.5,1-0.7,2.2-0.7,3.7v14
			c0,1.4,0.2,2.7,0.7,3.6c0.5,1,1.2,1.8,2.1,2.3c0.9,0.5,2.1,0.8,3.5,0.8c1.4,0,2.6-0.3,3.5-0.8c0.9-0.5,1.6-1.3,2.1-2.3
			c0.5-1,0.7-2.2,0.7-3.6v-3.6H205.1z M211.7,311.4h4.2v-26.8h-4.2V311.4z M219,311.4h11.2v-3.8h-6.9v-23H219V311.4z M241.3,284.6
			h-6.2l-4.3,26.8h3.9l0.7-4.9h5.1l0.7,4.9h4.3L241.3,284.6z M238,289.3L238,289.3l2.1,13.6H236L238,289.3z M256.6,311.4h4.3v-26.8
			h-3.7v16.1h-0.1l-4.2-16.1h-5.3v26.8h3.8V292h0.1L256.6,311.4z"/>
		<path fill="#336666" d="M173.9,331.9h4.8v11.5h4.3v-26.8h-4.3v11.5h-4.8v-11.5h-4.2v26.8h4.2V331.9z M190,322.7
			c0-0.9,0.2-1.6,0.6-2c0.4-0.4,0.9-0.6,1.6-0.6c0.7,0,1.2,0.2,1.6,0.6c0.4,0.4,0.6,1.1,0.6,2v14.5c0,0.9-0.2,1.6-0.6,2
			c-0.4,0.4-0.9,0.6-1.6,0.6c-0.7,0-1.2-0.2-1.6-0.6c-0.4-0.4-0.6-1.1-0.6-2V322.7z M185.8,336.9c0,1.4,0.2,2.7,0.7,3.6
			c0.5,1,1.2,1.8,2.2,2.3c0.9,0.5,2.1,0.8,3.5,0.8c1.4,0,2.5-0.3,3.5-0.8c0.9-0.5,1.6-1.3,2.1-2.3c0.5-1,0.8-2.2,0.8-3.6v-14
			c0-1.4-0.3-2.7-0.8-3.7c-0.5-1-1.2-1.7-2.1-2.3c-1-0.5-2.1-0.8-3.5-0.8c-1.4,0-2.6,0.3-3.5,0.8c-1,0.5-1.7,1.3-2.2,2.3
			c-0.5,1-0.7,2.2-0.7,3.7V336.9z M200.1,320.4h4.4v23h4.2v-23h4.4v-3.8h-13.1V320.4z M219.2,320.4h7.3v-3.8h-11.5v26.8h11.5v-3.9
			h-7.3v-7.8h5.8v-3.9h-5.8V320.4z M229.1,343.4h11.1v-3.9h-6.9v-23h-4.2V343.4z"/>
		<path fill="#FFFFCC" d="M160.6,309.2h4.3l-5.9-14.9l5.9-12h-4.2l-5.4,11.6h-0.1v-11.6H151v26.8h4.2V301l1.3-2.5L160.6,309.2z
			 M176.2,282.3H170l-4.3,26.8h3.9l0.7-4.9h5.2l0.7,4.9h4.3L176.2,282.3z M172.9,287.1L172.9,287.1l2.1,13.6h-4.1L172.9,287.1z
			 M191.5,309.2h4.3v-26.8H192v16.1h-0.1l-4.2-16.1h-5.3v26.8h3.8v-19.4h0.1L191.5,309.2z M207.1,299.2v3.9c0,0.6-0.1,1.2-0.3,1.5
			c-0.2,0.4-0.4,0.7-0.7,0.8c-0.4,0.2-0.7,0.2-1.2,0.2c-0.5,0-0.8-0.1-1.2-0.2c-0.3-0.2-0.6-0.5-0.7-0.8c-0.2-0.4-0.3-0.9-0.3-1.5
			v-14.5c0-1,0.2-1.6,0.6-2.1c0.4-0.4,0.9-0.6,1.6-0.6c0.7,0,1.2,0.2,1.6,0.6c0.4,0.4,0.6,1.1,0.6,2.1v2.9h4v-2.6
			c0-1.4-0.2-2.7-0.7-3.6c-0.5-1-1.2-1.8-2.1-2.3c-0.9-0.5-2.1-0.8-3.5-0.8c-1.4,0-2.5,0.2-3.5,0.8c-0.9,0.5-1.6,1.3-2.1,2.3
			c-0.5,1-0.7,2.2-0.7,3.6v14c0,1.4,0.2,2.7,0.7,3.7c0.5,1,1.2,1.7,2.1,2.3c0.9,0.5,2.1,0.8,3.5,0.8c1.4,0,2.6-0.3,3.5-0.8
			c0.9-0.5,1.6-1.3,2.1-2.3c0.5-1,0.7-2.2,0.7-3.7v-3.6H207.1z M213.6,309.2h4.2v-26.8h-4.2V309.2z M220.9,309.2h11.1v-3.8h-6.9v-23
			h-4.2V309.2z M243.3,282.3h-6.2l-4.3,26.8h3.9l0.7-4.9h5.2l0.7,4.9h4.3L243.3,282.3z M239.9,287.1L239.9,287.1l2.1,13.6h-4.1
			L239.9,287.1z M258.5,309.2h4.3v-26.8h-3.7v16.1H259l-4.3-16.1h-5.3v26.8h3.8v-19.4h0.1L258.5,309.2z"/>
		<path fill="#FFFFCC" d="M175.9,329.7h4.8v11.5h4.3v-26.8h-4.3v11.5h-4.8v-11.5h-4.2v26.8h4.2V329.7z M191.9,320.5
			c0-1,0.2-1.6,0.6-2.1c0.4-0.4,0.9-0.6,1.6-0.6c0.7,0,1.2,0.2,1.6,0.6c0.4,0.4,0.6,1.1,0.6,2.1V335c0,0.9-0.2,1.6-0.6,2
			c-0.4,0.4-0.9,0.6-1.6,0.6c-0.7,0-1.2-0.2-1.6-0.6c-0.4-0.4-0.6-1.1-0.6-2V320.5z M187.7,334.7c0,1.4,0.2,2.7,0.7,3.7
			c0.5,1,1.2,1.7,2.2,2.3c0.9,0.5,2.1,0.8,3.5,0.8c1.4,0,2.6-0.3,3.5-0.8c0.9-0.5,1.6-1.3,2.1-2.3c0.5-1,0.8-2.2,0.8-3.7v-14
			c0-1.4-0.2-2.7-0.8-3.6c-0.5-1-1.2-1.8-2.1-2.3c-0.9-0.5-2.1-0.8-3.5-0.8c-1.4,0-2.6,0.2-3.5,0.8c-1,0.5-1.7,1.3-2.2,2.3
			c-0.5,1-0.7,2.2-0.7,3.6V334.7z M202,318.2h4.4v23h4.2v-23h4.4v-3.9H202V318.2z M221.1,318.2h7.3v-3.9h-11.5v26.8h11.5v-3.8h-7.3
			v-7.9h5.8v-3.8h-5.8V318.2z M231,341.1h11.1v-3.8h-6.9v-23H231V341.1z"/>
		<polygon fill-rule="evenodd" clip-rule="evenodd" fill="#FFFFCC" points="130.9,281.8 132.4,286.6 137.5,286.6 133.4,289.6 
			135,294.4 130.9,291.4 126.8,294.4 128.4,289.6 124.3,286.6 129.4,286.6 		"/>
		<polygon fill-rule="evenodd" clip-rule="evenodd" fill="#FFFFCC" points="130.9,305.2 132.4,310 137.5,310 133.4,312.9 135,317.7 
			130.9,314.8 126.8,317.7 128.4,312.9 124.3,310 129.4,310 		"/>
		<polygon fill-rule="evenodd" clip-rule="evenodd" fill="#FFFFCC" points="130.9,328.5 132.4,333.3 137.5,333.3 133.4,336.3 
			135,341.1 130.9,338.1 126.8,341.1 128.4,336.3 124.3,333.3 129.4,333.3 		"/>
		<polygon fill-rule="evenodd" clip-rule="evenodd" fill="#FFFFCC" points="281.4,281.8 282.9,286.6 288,286.6 283.9,289.6 
			285.5,294.4 281.4,291.4 277.3,294.4 278.9,289.6 274.8,286.6 279.8,286.6 		"/>
		<polygon fill-rule="evenodd" clip-rule="evenodd" fill="#FFFFCC" points="281.4,305.2 282.9,310 288,310 283.9,312.9 285.5,317.7 
			281.4,314.8 277.3,317.7 278.9,312.9 274.8,310 279.8,310 		"/>
		<polygon fill-rule="evenodd" clip-rule="evenodd" fill="#FFFFCC" points="281.4,328.5 282.9,333.3 288,333.3 283.9,336.3 
			285.5,341.1 281.4,338.1 277.3,341.1 278.9,336.3 274.8,333.3 279.8,333.3 		"/>
	</g>
</g>
<g>
	<g>
		<path fill-rule="evenodd" clip-rule="evenodd" fill="#2D6E57" d="M578,786.6h13.9c2.9-35-2.9-70.1-3.5-105.1
			c12-12.8,9.3-38.3-3.5-38.3c-12.7,0-15.5,25.5-3.4,38.3C582.6,716.6,575,751.6,578,786.6L578,786.6z"/>
		<path fill-rule="evenodd" clip-rule="evenodd" fill="#59BA98" d="M584.9,650.7c-9.1,1.1-25.1,11.1-29.4,18.9
			c0.1-1,1.5-4.2,3.5-6.3c-11.5,4.4-20.5,20-17.3,34.6c-9.7-9.3-6.7-33.7,3.8-39.3c-2.7,0.8-4.5,1.9-6.9,4.4
			c3.5-7.4,11.3-14,20.7-16.6c-3.6,0.3-6.9,0.9-9.3,2c0.7-0.8,3.6-2.5,6.5-3.1c-11.9-3.2-28.3,4-34.4,17.7
			c-2.3-13.3,14.5-31.2,26.3-29.4c-2.7-0.9-4.7-1.1-8.2-0.5c4.4-2.4,9.8-3.6,15.5-3.3c-9.8-4.3-23.5-3.3-32.8,4.6
			c3.7-12.9,26.7-21.7,36.5-15c-2-2-3.8-3.1-7.1-4c6.1-0.3,12.9,1.8,18.7,5.8c-5.8-9.9-19.6-17.1-32.9-14.3
			c9.5-9.6,33.8-6.3,39.3,4.2c-0.8-2.7-1.9-4.5-4.3-6.9c4.5,2.2,8.7,6,11.8,10.8c3.2-4.8,7.4-8.6,11.9-10.8
			c-2.4,2.4-3.5,4.2-4.3,6.9c5.5-10.5,29.8-13.8,39.3-4.2c-13.3-2.8-27.1,4.4-32.9,14.3c5.8-4,12.6-6.1,18.7-5.8
			c-3.3,0.9-5.1,2-7.1,4c9.8-6.7,32.8,2.1,36.5,15c-9.3-7.9-23-8.9-32.8-4.6c5.7-0.2,11.1,0.9,15.5,3.3c-3.4-0.6-5.5-0.4-8.2,0.5
			c11.7-1.8,28.5,16.2,26.3,29.4c-6.1-13.7-22.5-21-34.4-17.7c2.9,0.6,5.8,2.3,6.5,3.1c-2.3-1.1-5.6-1.8-9.3-2
			c9.3,2.6,17.2,9.1,20.7,16.6c-2.4-2.5-4.1-3.6-6.9-4.4c10.5,5.5,13.4,29.9,3.8,39.3c3.2-14.7-5.7-30.2-17.3-34.6
			c2,2.2,3.4,5.3,3.5,6.3C610.1,661.7,594,651.8,584.9,650.7L584.9,650.7z"/>
	</g>
	<g>
		<path fill-rule="evenodd" clip-rule="evenodd" fill="#2D6E57" d="M717.4,786.6h13.9c2.9-35-2.9-70.1-3.5-105.1
			c12-12.8,9.3-38.3-3.4-38.3c-12.7,0-15.5,25.5-3.5,38.3C722.1,716.6,714.5,751.6,717.4,786.6L717.4,786.6z"/>
		<path fill-rule="evenodd" clip-rule="evenodd" fill="#59BA98" d="M724.3,650.7c-9.1,1.1-25.2,11.1-29.4,18.9
			c0.1-1,1.5-4.2,3.4-6.3c-11.5,4.4-20.5,20-17.3,34.6c-9.7-9.3-6.7-33.7,3.8-39.3c-2.7,0.8-4.5,1.9-6.9,4.4
			c3.5-7.4,11.3-14,20.7-16.6c-3.6,0.3-6.9,0.9-9.3,2c0.7-0.8,3.7-2.5,6.5-3.1c-11.9-3.2-28.4,4-34.4,17.7
			c-2.2-13.3,14.6-31.2,26.3-29.4c-2.7-0.9-4.7-1.1-8.1-0.5c4.3-2.4,9.8-3.6,15.5-3.3c-9.8-4.3-23.5-3.3-32.8,4.6
			c3.7-12.9,26.7-21.7,36.5-15c-2-2-3.8-3.1-7.1-4c6.1-0.3,12.8,1.8,18.7,5.8c-5.7-9.9-19.6-17.1-32.9-14.3
			c9.5-9.6,33.8-6.3,39.3,4.2c-0.8-2.7-1.9-4.5-4.3-6.9c4.5,2.2,8.7,6,11.9,10.8c3.1-4.8,7.3-8.6,11.9-10.8
			c-2.5,2.4-3.5,4.2-4.3,6.9c5.4-10.5,29.8-13.8,39.2-4.2c-13.3-2.8-27.1,4.4-32.9,14.3c5.8-4,12.6-6.1,18.7-5.8
			c-3.3,0.9-5.1,2-7.1,4c9.8-6.7,32.7,2.1,36.5,15c-9.4-7.9-23-8.9-32.8-4.6c5.6-0.2,11.1,0.9,15.5,3.3c-3.4-0.6-5.5-0.4-8.2,0.5
			c11.8-1.8,28.6,16.2,26.3,29.4c-6.1-13.7-22.5-21-34.4-17.7c2.9,0.6,5.8,2.3,6.5,3.1c-2.4-1.1-5.6-1.8-9.3-2
			c9.3,2.6,17.2,9.1,20.7,16.6c-2.4-2.5-4.2-3.6-6.9-4.4c10.5,5.5,13.4,29.9,3.8,39.3c3.2-14.7-5.7-30.2-17.3-34.6
			c2,2.2,3.4,5.3,3.5,6.3C749.5,661.7,733.4,651.8,724.3,650.7L724.3,650.7z"/>
	</g>
	<g>
		<path fill-rule="evenodd" clip-rule="evenodd" fill="#2D6E57" d="M1442.4,786.6h13.9c2.9-35-2.9-70.1-3.5-105.1
			c12-12.8,9.3-38.3-3.4-38.3c-12.7,0-15.5,25.5-3.5,38.3C1447.1,716.6,1439.5,751.6,1442.4,786.6L1442.4,786.6z"/>
		<path fill-rule="evenodd" clip-rule="evenodd" fill="#59BA98" d="M1449.4,650.7c-9.1,1.1-25.2,11.1-29.4,18.9
			c0.1-1,1.5-4.2,3.4-6.3c-11.5,4.4-20.5,20-17.3,34.6c-9.7-9.3-6.7-33.7,3.8-39.3c-2.7,0.8-4.5,1.9-6.9,4.4
			c3.5-7.4,11.3-14,20.7-16.6c-3.6,0.3-6.9,0.9-9.3,2c0.7-0.8,3.7-2.5,6.5-3.1c-11.9-3.2-28.3,4-34.4,17.7
			c-2.2-13.3,14.6-31.2,26.3-29.4c-2.7-0.9-4.7-1.1-8.2-0.5c4.4-2.4,9.8-3.6,15.5-3.3c-9.8-4.3-23.4-3.3-32.8,4.6
			c3.7-12.9,26.7-21.7,36.5-15c-2-2-3.8-3.1-7.1-4c6.1-0.3,12.8,1.8,18.7,5.8c-5.8-9.9-19.6-17.1-32.9-14.3
			c9.5-9.6,33.8-6.3,39.3,4.2c-0.8-2.7-1.9-4.5-4.3-6.9c4.5,2.2,8.7,6,11.9,10.8c3.1-4.8,7.3-8.6,11.9-10.8
			c-2.5,2.4-3.5,4.2-4.4,6.9c5.5-10.5,29.8-13.8,39.3-4.2c-13.3-2.8-27.1,4.4-32.9,14.3c5.8-4,12.6-6.1,18.7-5.8
			c-3.3,0.9-5.1,2-7.1,4c9.8-6.7,32.8,2.1,36.5,15c-9.4-7.9-23-8.9-32.8-4.6c5.6-0.2,11.1,0.9,15.5,3.3c-3.4-0.6-5.5-0.4-8.2,0.5
			c11.8-1.8,28.6,16.2,26.3,29.4c-6.1-13.7-22.5-21-34.4-17.7c2.9,0.6,5.8,2.3,6.5,3.1c-2.3-1.1-5.6-1.8-9.3-2
			c9.3,2.6,17.2,9.1,20.7,16.6c-2.4-2.5-4.2-3.6-6.9-4.4c10.5,5.5,13.4,29.9,3.8,39.3c3.2-14.7-5.7-30.2-17.3-34.6
			c2,2.2,3.4,5.3,3.5,6.3C1474.5,661.7,1458.5,651.8,1449.4,650.7L1449.4,650.7z"/>
	</g>
	<g>
		<path fill-rule="evenodd" clip-rule="evenodd" fill="#2D6E57" d="M1581.8,786.6h13.9c2.9-35-2.9-70.1-3.5-105.1
			c12-12.8,9.3-38.3-3.4-38.3c-12.7,0-15.5,25.5-3.5,38.3C1586.5,716.6,1578.9,751.6,1581.8,786.6L1581.8,786.6z"/>
		<path fill-rule="evenodd" clip-rule="evenodd" fill="#59BA98" d="M1588.8,650.7c-9.1,1.1-25.2,11.1-29.4,18.9
			c0.1-1,1.5-4.2,3.4-6.3c-11.5,4.4-20.5,20-17.3,34.6c-9.7-9.3-6.7-33.7,3.8-39.3c-2.7,0.8-4.5,1.9-6.9,4.4
			c3.5-7.4,11.3-14,20.7-16.6c-3.7,0.3-7,0.9-9.3,2c0.7-0.8,3.7-2.5,6.5-3.1c-11.9-3.2-28.3,4-34.4,17.7
			c-2.2-13.3,14.6-31.2,26.3-29.4c-2.7-0.9-4.8-1.1-8.2-0.5c4.3-2.4,9.8-3.6,15.5-3.3c-9.8-4.3-23.4-3.3-32.8,4.6
			c3.7-12.9,26.7-21.7,36.5-15c-2-2-3.8-3.1-7.1-4c6.1-0.3,12.9,1.8,18.7,5.8c-5.8-9.9-19.7-17.1-32.9-14.3
			c9.5-9.6,33.8-6.3,39.3,4.2c-0.8-2.7-1.9-4.5-4.3-6.9c4.6,2.2,8.7,6,11.9,10.8c3.1-4.8,7.3-8.6,11.9-10.8
			c-2.5,2.4-3.5,4.2-4.3,6.9c5.4-10.5,29.8-13.8,39.2-4.2c-13.2-2.8-27.1,4.4-32.9,14.3c5.8-4,12.6-6.1,18.7-5.8
			c-3.3,0.9-5.1,2-7.1,4c9.8-6.7,32.7,2.1,36.5,15c-9.4-7.9-23-8.9-32.8-4.6c5.6-0.2,11.1,0.9,15.5,3.3c-3.4-0.6-5.5-0.4-8.2,0.5
			c11.8-1.8,28.6,16.2,26.3,29.4c-6.1-13.7-22.5-21-34.4-17.7c2.9,0.6,5.8,2.3,6.5,3.1c-2.4-1.1-5.6-1.8-9.3-2
			c9.4,2.6,17.2,9.1,20.7,16.6c-2.4-2.5-4.2-3.6-6.9-4.4c10.5,5.5,13.4,29.9,3.8,39.3c3.2-14.7-5.8-30.2-17.3-34.6
			c2,2.2,3.4,5.3,3.5,6.3C1614,661.7,1597.9,651.8,1588.8,650.7L1588.8,650.7z"/>
	</g>
	<g>
		<path fill-rule="evenodd" clip-rule="evenodd" fill="#2D6E57" d="M330.1,786.6H344c2.9-35-2.9-70.1-3.5-105.1
			c12-12.8,9.3-38.3-3.4-38.3c-12.7,0-15.5,25.5-3.5,38.3C334.8,716.6,327.2,751.6,330.1,786.6L330.1,786.6z"/>
		<path fill-rule="evenodd" clip-rule="evenodd" fill="#59BA98" d="M337.1,650.7c-9.1,1.1-25.2,11.1-29.4,18.9
			c0.1-1,1.5-4.2,3.4-6.3c-11.5,4.4-20.5,20-17.3,34.6c-9.7-9.3-6.7-33.7,3.8-39.3c-2.7,0.8-4.5,1.9-6.9,4.4
			c3.5-7.4,11.3-14,20.7-16.6c-3.7,0.3-7,0.9-9.3,2c0.7-0.8,3.7-2.5,6.5-3.1c-11.9-3.2-28.4,4-34.4,17.7
			c-2.2-13.3,14.6-31.2,26.3-29.4c-2.7-0.9-4.8-1.1-8.2-0.5c4.3-2.4,9.8-3.6,15.5-3.3c-9.8-4.3-23.5-3.3-32.8,4.6
			c3.7-12.9,26.7-21.7,36.5-15c-2-2-3.8-3.1-7.1-4c6.1-0.3,12.8,1.8,18.7,5.8c-5.8-9.9-19.7-17.1-32.9-14.3
			c9.5-9.6,33.8-6.3,39.3,4.2c-0.8-2.7-1.9-4.5-4.3-6.9c4.5,2.2,8.7,6,11.9,10.8c3.1-4.8,7.3-8.6,11.9-10.8
			c-2.5,2.4-3.5,4.2-4.3,6.9c5.4-10.5,29.8-13.8,39.2-4.2c-13.3-2.8-27.1,4.4-32.9,14.3c5.8-4,12.6-6.1,18.7-5.8
			c-3.3,0.9-5.1,2-7.1,4c9.8-6.7,32.7,2.1,36.5,15c-9.4-7.9-23-8.9-32.8-4.6c5.6-0.2,11.1,0.9,15.5,3.3c-3.4-0.6-5.5-0.4-8.2,0.5
			c11.8-1.8,28.6,16.2,26.3,29.4c-6.1-13.7-22.5-21-34.4-17.7c2.9,0.6,5.8,2.3,6.5,3.1c-2.4-1.1-5.6-1.8-9.3-2
			c9.4,2.6,17.2,9.1,20.7,16.6c-2.4-2.5-4.2-3.6-6.9-4.4c10.5,5.5,13.4,29.9,3.8,39.3c3.2-14.7-5.8-30.2-17.3-34.6
			c2,2.2,3.4,5.3,3.5,6.3C362.3,661.7,346.2,651.8,337.1,650.7L337.1,650.7z"/>
	</g>
</g>
<g>
	<g>
		<rect y="804.3" fill-rule="evenodd" clip-rule="evenodd" fill="#336666" width="1750" height="175.7"/>
		<rect y="786.6" fill-rule="evenodd" clip-rule="evenodd" fill="#FFFFCC" width="1750" height="17.7"/>
		<rect y="864.7" fill-rule="evenodd" clip-rule="evenodd" fill="#173636" width="1750" height="95.1"/>
	</g>
	<g>
		<path fill-rule="evenodd" clip-rule="evenodd" fill="#0D2121" d="M253.8,928.6c9.5,0,17.8,3,21.9,7.6c2-0.9-0.7-4.5,4.2-4.5
			c4.9,0,22.4,14.6,22.4,20.1c0,5.5-11.1,4.9-16.6,4.9c-5.5,0-3.3,2.5-5.7,0.6c-4.5,3.1-17.4,1.6-25.1,1.6c-9.4,0-18.8,1.5-22.9-2.9
			c-0.5-0.5-19.1,4.9-36.5,2c-11.9-2-20.6-13.7-32.9-10.5c-0.6,0.1,5.5-9.5,28.3,4.6c15,9.2,37.7-0.9,37.7-5.5
			C228.9,930.7,240.2,928.6,253.8,928.6L253.8,928.6z"/>
		<path fill-rule="evenodd" clip-rule="evenodd" fill="#0D2121" d="M841.1,928.6c9.5,0,17.8,3,21.9,7.6c2-0.9-0.7-4.5,4.2-4.5
			c4.9,0,22.4,14.6,22.4,20.1c0,5.5-11.1,4.9-16.6,4.9c-5.5,0-3.3,2.5-5.7,0.6c-4.5,3.1-17.4,1.6-25.1,1.6c-9.3,0-18.7,1.5-22.9-2.9
			c-0.5-0.5-18.6-12.4-36-15.3c-11.9-2-21.1,1-13.5,16.3c0.3,0.6-17.7-23.2,15.7-19.8c17.5,1.7,30.4,13.9,30.5,9.3
			C816.2,930.7,827.4,928.6,841.1,928.6L841.1,928.6z"/>
		<path fill-rule="evenodd" clip-rule="evenodd" fill="#0D2121" d="M1024.9,921.9c11.6,0,15.8-6.1,25.3-5.6c2-0.9-0.7-4.5,4.2-4.5
			c4.9,0,22.4,14.7,22.4,20.2s-11.1,4.9-16.6,4.9s1.2,9.4-1.3,7.5c-18.6-6.6-19.6,14.4-27.2,14.4c-9.3,0-18.7,1.5-22.9-2.9
			c-0.5-0.5-18.6-12.4-36-15.3c-11.9-2-21.1,1-13.5,16.3c0.3,0.6-17.7-23.2,15.7-19.8c17.5,1.7,30.4,13.9,30.5,9.3
			C1005.7,930.7,1013.3,921.9,1024.9,921.9L1024.9,921.9z"/>
		<path fill-rule="evenodd" clip-rule="evenodd" fill="#0D2121" d="M1499.2,956.3c-1.3,1.5-2.7,2.6-4.4,2.6
			c-9.4,0-18.8,1.5-22.9-2.9c-0.5-0.5-13.5,4.7-30.9,1.8c-11.9-2-23.5-30.6-0.6-28c0.6,0.1-18.6,5.9-3.1,22.8
			c6.3,6.9,31.3-1.5,31.4-6.1c0.2-9.4,2.9-16.3,7.6-20.3c-2.3-0.2-4.9,0.1-8.1,1.2c-2.4,1.9,4.3-7.5-1.2-7.5s-16.6,0.6-16.6-4.9
			c0-5.5,17.5-20.2,22.4-20.2c4.9,0,2.2,3.6,4.2,4.5c5.7-0.3,9.5,1.8,14.1,3.5C1508.2,914,1516.6,939.6,1499.2,956.3L1499.2,956.3z"
			/>
	</g>
</g>
<g>
	<g>
		<path fill-rule="evenodd" clip-rule="evenodd" fill="#331616" d="M176.5,774.6c26.2,0.2,52.4,0.5,78.7,0.8
			c12.5-0.6,25-1.1,37.5-1.6c2.6,0.6,5.5,0.5,9.2-1c6.5-2.4,12.9-4.9,19.4-7.3c-17.6-7.5-35.3-15-52.9-22.5
			c-8.3-6.8-16.6-13.6-24.9-20.4c-22.4-1.3-44.8-2.5-67.3-3.7c-0.9,2-1.9,4-2.8,6c4,0,8.1,0.1,12,0.1l-0.4,12.7h0.4l0.3-12.7
			c2.5,0,4.9,0.1,7.3,0.2l-0.9,1.7l-0.2,2.3l-1.3,1.2l1.1,0.6v0.9l0.4,1.6l0,0.9l3.5,0.3l-0.1,1.3l-2,2.6l-99.9,4.2
			c-1.2,8.8-2.3,17.5-3.5,26.2c19.1,2.9,34.3,3.6,45.6,2.2c3.9,3.7,9.4,3.6,15.2,3.1C159.6,774.4,168.1,774.5,176.5,774.6
			L176.5,774.6z M203.3,725.8c9.7,0.8,18.4,2.2,25.2,5c-4.1,4.7-8.5,9-18.4,7.2l-6.3,0.3l-1.1-1.9l-0.8-2.8l0.6-1.1l0.8-3.6l0.5-0.2
			L203.3,725.8z"/>
		<path fill-rule="evenodd" clip-rule="evenodd" fill="#0D2121" d="M274.7,755.1c8.8,0.2,15.6,7.5,15.4,16.2
			c-0.2,8.7-7.5,15.6-16.3,15.4c-8.7-0.2-15.6-7.5-15.4-16.3C258.7,761.7,266,754.8,274.7,755.1L274.7,755.1z"/>
		<path fill-rule="evenodd" clip-rule="evenodd" fill="#999999" d="M274.6,760.6c5.6,0.2,10.1,4.9,9.9,10.6
			c-0.1,5.7-4.9,10.1-10.5,9.9c-5.7-0.1-10.1-4.9-10-10.5C264.2,764.9,268.9,760.4,274.6,760.6L274.6,760.6z"/>
		<path fill-rule="evenodd" clip-rule="evenodd" fill="#962929" d="M78.3,747.9c-0.5,0.2-1.1,0.3-1.7,0.3c-2.5-0.1-4.4-2.3-4.3-4.9
			c0-1.5,0.7-2.8,1.8-3.7c-1.2-0.9-2.2-1.7-1.8-2.3c0.9-1.5,5.7-2.6,8.6-2.7l11.7-0.2c0.3-0.7,1-1.6,1.5-1.8
			c0.9-0.4,3.1-0.5,2.8,0.5l-0.4,1.2l58.2-1.4c25.8,3.3,41.9,4.4,63.7,6.4c6.1,0.6,33.2-3.7,52.2-0.7l4.7,0.3
			c8.3-1.7,24.2-1.6,23.3-0.2l-1.1,1.7h-0.1l3.7,0.2c5.4-0.8,12-3,14.5-3c9-0.1,16.9,0,23,0.8c1.2,3.6-8.9,12.1-7.7,15.7l0,0
			c3.2,0,6.3,0.7,6.6,2c0.5,1.9-2.7,4.8-3.6,4.7l-4.2-0.2l-0.2,0.9l4.6,0.1c3.7,0.3,4.4,1.4,3.6,2.9c-1.2,3-0.3,5.8-1.9,8.6
			l-8.5,0.1l0,0l-24.7,0.4c-3.5-4-7-6.3-13.9-7.9c-5.5-1.3-22.2-1.8-26.6-0.8c-5.5,1.2-6.5,5-7.3,8.1l-105.2-1
			c-10.4-9.4-13.4-17.3-23.4-21.5c-12.8-5.4-28.3-2.5-31.4,6.9c2.4,0.1,2.1,5.8-1,5.7l-0.2,8.2c0,0.9-0.8,2.2-1.8,2.2l-8.5-0.2
			c-2.8-0.1-3.9-2.8-7.1-4.3c-2.4-1.1-2.2-2.9-1.8-4.6c-2.3-0.8-5.9-2.2-5.8-4.9c0.1-2.6,4.6-5.1,9.3-4.9c0,0,2.5-3.1,1.7-4.5
			C79.3,749.3,78.8,748.6,78.3,747.9L78.3,747.9z"/>
		<path fill-rule="evenodd" clip-rule="evenodd" fill="#FFFFCC" d="M154.6,732.9c6.1-5.2,11-9.3,17-14.6c0.1-0.9,0.5-1.9,1.7-2.7
			c32.2-0.4,63.5-0.2,80.5,8.7c5.5,4.8,11,9.5,16.4,14.3c-12,0-24.3-0.4-34.8,1.1C229.3,741.7,167.9,736.3,154.6,732.9L154.6,732.9z
			 M190.5,722.2l-0.5,13.9c12.2,1.4,28,2.8,41.6,3c1.7,0,3.6-0.6,4.8-1.9l7.9-8.1C237.3,725.2,211.2,722.2,190.5,722.2L190.5,722.2z
			 M178.7,722.1c2.8-0.3,7.1,0,10.6,0l-0.4,13.8l-4.3-0.3C182.7,731.1,180.7,726.6,178.7,722.1L178.7,722.1z"/>
		<path fill-rule="evenodd" clip-rule="evenodd" fill="#0D2121" d="M116,751.6c9.7,0.3,17.3,8.3,17,18c-0.3,9.7-8.3,17.3-18,17
			c-9.7-0.3-17.3-8.4-17-18C98.2,758.9,106.3,751.3,116,751.6L116,751.6z"/>
		<path fill-rule="evenodd" clip-rule="evenodd" fill="#999999" d="M115.8,757.6c6.3,0.2,11.3,5.5,11.1,11.8
			c-0.2,6.3-5.5,11.3-11.8,11.2c-6.3-0.2-11.3-5.5-11.1-11.8C104.2,762.4,109.5,757.4,115.8,757.6L115.8,757.6z"/>
		<path fill-rule="evenodd" clip-rule="evenodd" fill="#631818" d="M78.3,747.9c-0.5,0.2-1.1,0.3-1.7,0.3c-1,0-2-0.5-2.7-1.1h260.3
			c-2,2.7-3.7,5.3-3.2,7l0,0c3.2,0,6.3,0.7,6.6,2c0.5,1.9-2.7,4.8-3.6,4.7l-4.2-0.2l-0.2,0.9l4.6,0.1c3.7,0.3,4.4,1.4,3.6,2.9
			c-0.1,0.4-0.3,0.7-0.4,1.1h-49.2c-6-1.2-21.8-1.7-26-0.7c-0.8,0.2-1.6,0.4-2.2,0.7H143.4c-5.9-6.6-9.5-11.9-17.1-15.1
			c-12.8-5.4-28.3-2.5-31.4,6.9c2.4,0.1,2.1,5.8-1,5.7l-0.1,2.6H74.3c0-0.4,0.1-0.9,0.2-1.3c-2.3-0.8-5.9-2.2-5.8-4.9
			c0.1-2.6,4.6-5.1,9.3-4.9c0,0,2.5-3.1,1.7-4.5C79.3,749.3,78.8,748.6,78.3,747.9L78.3,747.9z"/>
	</g>
	<g>
		<polygon fill-rule="evenodd" clip-rule="evenodd" fill="#1A1A1A" points="477.1,753.8 651.5,753.8 651.5,773.2 608,776.9 
			519.4,776.7 477.3,770.9 		"/>
		<path fill-rule="evenodd" clip-rule="evenodd" fill="#0D2121" d="M501.1,759.1c7.6,0,13.8,6.2,13.8,13.8c0,7.6-6.2,13.8-13.8,13.8
			c-7.6,0-13.8-6.2-13.8-13.8C487.3,765.2,493.4,759.1,501.1,759.1L501.1,759.1z"/>
		<path fill-rule="evenodd" clip-rule="evenodd" fill="#999999" d="M501.1,765c4.3,0,7.9,3.5,7.9,7.9c0,4.3-3.5,7.9-7.9,7.9
			c-4.4,0-7.9-3.5-7.9-7.9C493.1,768.5,496.7,765,501.1,765L501.1,765z"/>
		<path fill-rule="evenodd" clip-rule="evenodd" fill="#0D2121" d="M624.3,759.1c7.6,0,13.8,6.2,13.8,13.8c0,7.6-6.2,13.8-13.8,13.8
			s-13.8-6.2-13.8-13.8C610.6,765.2,616.7,759.1,624.3,759.1L624.3,759.1z"/>
		<path fill-rule="evenodd" clip-rule="evenodd" fill="#999999" d="M624.3,765c4.4,0,7.9,3.5,7.9,7.9c0,4.3-3.5,7.9-7.9,7.9
			c-4.3,0-7.9-3.5-7.9-7.9C616.5,768.5,620,765,624.3,765L624.3,765z"/>
		<path fill-rule="evenodd" clip-rule="evenodd" fill="#805018" d="M473,749.5c13.5-3,30.3-2.5,54.9-3.8c4.9-5.2,12.5-11.4,18-15.6
			c3.1-4.6,46-4.2,68.2,0.9c20.4,4.6,39.3,13.3,57.2,21.3c4.1,0.5,12.2,0.5,11.9,3.7c-0.2,2.6-1.3,4.7-2.1,7.7c-0.2,0.7,1,0.9,0.9,2
			c-0.9,3.6-2.1,6.5-4,8.3c-11.1,0.5-22.2,0.9-33.3,1.4c-5.4-7.3-9.4-8.1-17.6-8.2c-16.9-0.1-16.2,1-19.6,11.1
			c-28.7,0-57.3-0.1-86-0.1c-6.1-10-7.5-18.5-23.3-18.1c-11.5,0.3-15.6,1-15.6,13.3c-3.4-0.2-6.7-0.4-10.1-0.5c-2.3-1-1.1-8.3-1.5-9
			c-0.9-1-2-1.8-2.7-3c-0.1-2.7-0.3-5.5,0.3-8.3C469.2,751.4,471.2,749.8,473,749.5L473,749.5z"/>
		<path fill-rule="evenodd" clip-rule="evenodd" fill="#523310" d="M674.3,752.5c4.1,0.4,9.1,0.9,8.9,3.4c-0.2,2.6-1.3,4.7-2.1,7.7
			c-0.2,0.7,1,0.9,0.9,2c-0.9,3.6-2.1,6.5-4,8.3c-11.1,0.5-22.2,0.9-33.3,1.4c-5.4-7.3-9.4-8.1-17.6-8.2c-16.9-0.1-16.2,1-19.6,11.1
			c-28.7,0-57.3-0.1-86-0.1c-6.1-10-7.5-18.5-23.3-18.1c-11.5,0.3-15.6,1-15.6,13.3c-3.4-0.2-6.7-0.4-10.1-0.5c-2.3-1-1.1-8.3-1.5-9
			c-0.9-1-2-1.8-2.7-3c-0.1-2.7-0.3-5.5,0.3-8.3l0-0.1H674.3z"/>
		<path fill-rule="evenodd" clip-rule="evenodd" fill="#0D2121" d="M548.5,730.4l-15.9,15.2c28.9,3.1,90.2,3.2,92.4-3.5
			C627.5,734.6,584.3,730.9,548.5,730.4L548.5,730.4z"/>
		<path fill-rule="evenodd" clip-rule="evenodd" fill="#CCCCCC" d="M545.9,730.1c47.2-0.9,82.7,4.9,83.2,12.3
			c0.4,6.3-61.3,8.2-102,3.4c-0.5,0,0.9-0.7,1.4-0.7c1.1,0.1,2.1,0.2,3.2,0.2c4.9-5,9.9-9.8,15.2-14.5c-0.7,0-1.3,0-2-0.1
			C544.6,730.8,545,730.1,545.9,730.1L545.9,730.1z M581.7,732.4l-0.7,14.5c-10.2,0.1-21.4,0-32.9-0.6l1.1-15.4
			C561.3,731.1,572.2,731.6,581.7,732.4L581.7,732.4z M583.5,746.8l0.9-14.2c24.2,2,38.2,5.3,38.2,9.2
			C622.6,744.5,606.1,746.4,583.5,746.8L583.5,746.8z M548.1,731.1l-1.1,15.1c-4.6-0.2-9.3-0.5-13.9-0.8
			C537.9,740.4,543,735.7,548.1,731.1L548.1,731.1z"/>
		<path fill-rule="evenodd" clip-rule="evenodd" fill="#CCCCCC" d="M468.5,753.3c0.6,0.6,0.9,1.2,0.8,2.1c-0.1,1.5-0.1,2.8,0,4.4
			c0,0.5-0.5,0.9-1,1C466.8,759.6,466.8,754.5,468.5,753.3L468.5,753.3z"/>
		<path fill-rule="evenodd" clip-rule="evenodd" fill="#CCCCCC" d="M476.7,765.5h-7.3c-1.3,0-3.4,0.7-3.4,2c0,0.9,1.3,2,2.2,3.3
			c0.8,1.2,1.1,2.6,2.3,2.6h6.3l2-5.4C479,767,478.5,765.5,476.7,765.5L476.7,765.5z"/>
		<path fill-rule="evenodd" clip-rule="evenodd" fill="#CCCCCC" d="M675.8,765.5h6.3c1.1,0,2.1,0.8,2.1,2.3c0,1.1-1.3,2.3-2.2,3.8
			c-0.8,1.3-1.1,3-2.3,3h-6.3l0.4-6.2C673.9,767.2,674.1,765.5,675.8,765.5L675.8,765.5z"/>
		<path fill-rule="evenodd" clip-rule="evenodd" fill="#CCCCCC" d="M482.6,773.4c0.2,0.4,1.2,0.4,1.3,0.1c-0.1-5.1,0.8-9,2.8-10.5
			c2.6-2,14.9-3.4,21.5-0.3c6.1,2.9,8.9,10.5,12.4,15.8c29.2,0,58.7,0.1,87.9,0.1c1.2-2.6,2-7.9,5.3-9.4c3.8-1.8,19.6-1.4,22.8,0.2
			c4.7,2.5,5.1,4.1,7.1,6.2c0.4,0.1,0.9,0,1.1-0.4c-5.4-7.3-9.4-8.1-17.6-8.2c-15.3-0.1-16.2,0.8-18.7,8.4l-88.7-0.5
			c-4.8-8.6-7.3-15.4-21.5-15C486.7,760.3,482.7,761.1,482.6,773.4L482.6,773.4z"/>
	</g>
	<g>
		<polygon fill-rule="evenodd" clip-rule="evenodd" fill="#191919" points="1382.1,753.8 1556.6,753.8 1556.6,773.2 1513.1,776.9 
			1424.5,776.7 1382.4,770.9 		"/>
		<path fill-rule="evenodd" clip-rule="evenodd" fill="#0D2121" d="M1406.1,759.1c7.6,0,13.8,6.2,13.8,13.8
			c0,7.6-6.2,13.8-13.8,13.8c-7.6,0-13.8-6.2-13.8-13.8C1392.3,765.2,1398.5,759.1,1406.1,759.1L1406.1,759.1z"/>
		<path fill-rule="evenodd" clip-rule="evenodd" fill="#999999" d="M1406.1,765c4.4,0,7.9,3.5,7.9,7.9c0,4.3-3.5,7.9-7.9,7.9
			c-4.3,0-7.9-3.5-7.9-7.9C1398.2,768.5,1401.8,765,1406.1,765L1406.1,765z"/>
		<path fill-rule="evenodd" clip-rule="evenodd" fill="#0D2121" d="M1529.4,759.1c7.6,0,13.8,6.2,13.8,13.8
			c0,7.6-6.2,13.8-13.8,13.8c-7.6,0-13.8-6.2-13.8-13.8C1515.6,765.2,1521.8,759.1,1529.4,759.1L1529.4,759.1z"/>
		<path fill-rule="evenodd" clip-rule="evenodd" fill="#999999" d="M1529.4,765c4.3,0,7.9,3.5,7.9,7.9c0,4.3-3.5,7.9-7.9,7.9
			c-4.4,0-7.9-3.5-7.9-7.9C1521.5,768.5,1525,765,1529.4,765L1529.4,765z"/>
		<path fill-rule="evenodd" clip-rule="evenodd" fill="#6D8726" d="M1378.1,749.5c13.4-3,30.3-2.5,55-3.8c4.9-5.2,12.5-11.4,18-15.6
			c3.1-4.6,46-4.2,68.2,0.9c20.4,4.6,39.3,13.3,57.2,21.3c4.1,0.5,12.2,0.5,11.9,3.7c-0.2,2.6-1.3,4.7-2.1,7.7c-0.2,0.7,1,0.9,0.9,2
			c-0.9,3.6-2.1,6.5-4.1,8.3c-11.1,0.5-22.2,0.9-33.3,1.4c-5.4-7.3-9.4-8.1-17.6-8.2c-16.9-0.1-16.2,1-19.5,11.1
			c-28.7,0-57.3-0.1-86-0.1c-6.1-10-7.5-18.5-23.3-18.1c-11.5,0.3-15.6,1-15.6,13.3c-3.4-0.2-6.7-0.4-10.1-0.5c-2.3-1-1.1-8.3-1.5-9
			c-0.9-1-2-1.8-2.7-3c-0.1-2.7-0.3-5.5,0.2-8.3C1374.3,751.4,1376.3,749.8,1378.1,749.5L1378.1,749.5z"/>
		<path fill-rule="evenodd" clip-rule="evenodd" fill="#4A5E14" d="M1579.4,752.5c4.1,0.4,9.1,0.9,8.9,3.4c-0.2,2.6-1.3,4.7-2.1,7.7
			c-0.2,0.7,1,0.9,0.9,2c-0.9,3.6-2.1,6.5-4.1,8.3c-11.1,0.5-22.2,0.9-33.3,1.4c-5.4-7.3-9.4-8.1-17.6-8.2
			c-16.9-0.1-16.2,1-19.5,11.1c-28.7,0-57.3-0.1-86-0.1c-6.1-10-7.5-18.5-23.3-18.1c-11.5,0.3-15.6,1-15.6,13.3
			c-3.4-0.2-6.7-0.4-10.1-0.5c-2.3-1-1.1-8.3-1.5-9c-0.9-1-2-1.8-2.7-3c-0.1-2.7-0.3-5.5,0.2-8.3l0.1-0.1H1579.4z"/>
		<path fill-rule="evenodd" clip-rule="evenodd" fill="#0D2121" d="M1453.5,730.4l-15.9,15.2c28.9,3.1,90.1,3.2,92.4-3.5
			C1532.6,734.6,1489.3,730.9,1453.5,730.4L1453.5,730.4z"/>
		<path fill-rule="evenodd" clip-rule="evenodd" fill="#CCCCCC" d="M1451,730.1c47.2-0.9,82.8,4.9,83.2,12.3
			c0.4,6.3-61.4,8.2-102,3.4c-0.5,0,0.9-0.7,1.4-0.7c1,0.1,2.1,0.2,3.2,0.2c4.9-5,9.9-9.8,15.2-14.5c-0.6,0-1.3,0-1.9-0.1
			C1449.7,730.8,1450,730.1,1451,730.1L1451,730.1z M1486.7,732.4l-0.7,14.5c-10.2,0.1-21.4,0-32.9-0.6l1.1-15.4
			C1466.4,731.1,1477.3,731.6,1486.7,732.4L1486.7,732.4z M1488.6,746.8l0.8-14.2c24.2,2,38.2,5.3,38.2,9.2
			C1527.6,744.5,1511.1,746.4,1488.6,746.8L1488.6,746.8z M1453.2,731.1l-1.1,15.1c-4.6-0.2-9.3-0.5-13.9-0.8
			C1443,740.4,1448,735.7,1453.2,731.1L1453.2,731.1z"/>
		<path fill-rule="evenodd" clip-rule="evenodd" fill="#CCCCCC" d="M1373.5,753.3c0.6,0.6,1,1.2,0.9,2.1c-0.1,1.5-0.1,2.8,0,4.4
			c0,0.5-0.5,0.9-1,1C1371.8,759.6,1371.9,754.5,1373.5,753.3L1373.5,753.3z"/>
		<path fill-rule="evenodd" clip-rule="evenodd" fill="#CCCCCC" d="M1381.8,765.5h-7.3c-1.3,0-3.4,0.7-3.4,2c0,0.9,1.3,2,2.2,3.3
			c0.8,1.2,1.1,2.6,2.3,2.6h6.3l1.9-5.4C1384.1,767,1383.5,765.5,1381.8,765.5L1381.8,765.5z"/>
		<path fill-rule="evenodd" clip-rule="evenodd" fill="#CCCCCC" d="M1580.8,765.5h6.3c1.1,0,2.1,0.8,2.1,2.3c0,1.1-1.3,2.3-2.2,3.8
			c-0.8,1.3-1.1,3-2.3,3h-6.3l0.4-6.2C1578.9,767.2,1579.1,765.5,1580.8,765.5L1580.8,765.5z"/>
		<path fill-rule="evenodd" clip-rule="evenodd" fill="#CCCCCC" d="M1387.7,773.4c0.2,0.4,1.2,0.4,1.3,0.1c-0.1-5.1,0.8-9,2.8-10.5
			c2.7-2,14.9-3.4,21.5-0.3c6.1,2.9,8.9,10.5,12.4,15.8c29.2,0,58.7,0.1,87.8,0.1c1.2-2.6,2.1-7.9,5.3-9.4
			c3.8-1.8,19.6-1.4,22.8,0.2c4.7,2.5,5.1,4.1,7.1,6.2c0.4,0.1,0.9,0,1.1-0.4c-5.4-7.3-9.4-8.1-17.6-8.2
			c-15.3-0.1-16.2,0.8-18.7,8.4l-88.7-0.5c-4.8-8.6-7.4-15.4-21.5-15C1391.8,760.3,1387.7,761.1,1387.7,773.4L1387.7,773.4z"/>
	</g>
</g>
<g>
	<g>
		<rect x="467" y="597.5" fill-rule="evenodd" clip-rule="evenodd" fill="#336666" width="4.1" height="5.9"/>
		<rect x="432.5" y="712" fill-rule="evenodd" clip-rule="evenodd" fill="#669999" width="16.9" height="74.7"/>
		<path fill-rule="evenodd" clip-rule="evenodd" fill="#336666" d="M441.5,588.2h-1.2c-1.9,0-3.4,1.5-3.4,3.4V712h8V591.6
			C444.9,589.7,443.4,588.2,441.5,588.2L441.5,588.2z"/>
		<rect x="408.2" y="591.6" fill-rule="evenodd" clip-rule="evenodd" fill="#669999" width="65.5" height="5.8"/>
		<rect x="410.7" y="597.5" fill-rule="evenodd" clip-rule="evenodd" fill="#336666" width="4.1" height="5.9"/>
		<path fill-rule="evenodd" clip-rule="evenodd" fill="#FFFFFF" d="M412.7,599.8c4,0,7.2,3.3,7.2,7.2c0,4-3.2,7.2-7.2,7.2
			s-7.2-3.3-7.2-7.2C405.5,603,408.7,599.8,412.7,599.8L412.7,599.8z"/>
		<path fill-rule="evenodd" clip-rule="evenodd" fill="#FFFFFF" d="M469.1,599.8c4,0,7.2,3.3,7.2,7.2c0,4-3.2,7.2-7.2,7.2
			s-7.2-3.3-7.2-7.2C461.9,603,465.1,599.8,469.1,599.8L469.1,599.8z"/>
	</g>
	<g>
		<rect x="1697.3" y="712" fill-rule="evenodd" clip-rule="evenodd" fill="#669999" width="16.9" height="74.7"/>
		<path fill-rule="evenodd" clip-rule="evenodd" fill="#336666" d="M1706.3,588.2h-1.2c-1.9,0-3.4,1.5-3.4,3.4V712h8V591.6
			C1709.7,589.7,1708.2,588.2,1706.3,588.2L1706.3,588.2z"/>
		<rect x="1673" y="591.6" fill-rule="evenodd" clip-rule="evenodd" fill="#669999" width="65.4" height="5.8"/>
		<rect x="1675.5" y="597.5" fill-rule="evenodd" clip-rule="evenodd" fill="#336666" width="4.1" height="5.9"/>
		<path fill-rule="evenodd" clip-rule="evenodd" fill="#FFFFFF" d="M1677.5,599.8c4,0,7.2,3.3,7.2,7.2c0,4-3.2,7.2-7.2,7.2
			c-4,0-7.2-3.3-7.2-7.2C1670.3,603,1673.5,599.8,1677.5,599.8L1677.5,599.8z"/>
		<rect x="1731.9" y="597.5" fill-rule="evenodd" clip-rule="evenodd" fill="#336666" width="4.1" height="5.9"/>
		<path fill-rule="evenodd" clip-rule="evenodd" fill="#FFFFFF" d="M1733.9,599.8c4,0,7.2,3.3,7.2,7.2c0,4-3.2,7.2-7.2,7.2
			s-7.2-3.3-7.2-7.2C1726.7,603,1729.9,599.8,1733.9,599.8L1733.9,599.8z"/>
	</g>
</g>
<g>
	<path fill-rule="evenodd" clip-rule="evenodd" fill="#FFFFFF" d="M289.1,63.7c3.7,0,7.3,0.5,10.6,1.6c-7.6,5.6-12.5,14.6-12.5,24.7
		c0,16.9,13.7,30.6,30.6,30.6c0.5,0,1,0,1.5-0.1c-6.5,9.7-17.7,16.1-30.3,16.1c-20.1,0-36.5-16.3-36.5-36.5S269,63.7,289.1,63.7
		L289.1,63.7z"/>
	<path fill-rule="evenodd" clip-rule="evenodd" fill="#FFFFFF" d="M602.3,67.4c2.5,0,4.4,2,4.4,4.4c0,2.5-2,4.4-4.4,4.4
		c-2.4,0-4.4-2-4.4-4.4C597.9,69.4,599.9,67.4,602.3,67.4L602.3,67.4z"/>
	<path fill-rule="evenodd" clip-rule="evenodd" fill="#FFFFFF" d="M425.7,56.9c1.3,0,2.4,1.1,2.4,2.4c0,1.3-1.1,2.4-2.4,2.4
		s-2.4-1.1-2.4-2.4C423.3,58,424.4,56.9,425.7,56.9L425.7,56.9z"/>
	<path fill-rule="evenodd" clip-rule="evenodd" fill="#FFFFFF" d="M487.6,310.2c1.3,0,2.4,1.1,2.4,2.4c0,1.3-1.1,2.4-2.4,2.4
		c-1.3,0-2.4-1.1-2.4-2.4C485.2,311.3,486.3,310.2,487.6,310.2L487.6,310.2z"/>
	<path fill-rule="evenodd" clip-rule="evenodd" fill="#FFFFFF" d="M77.5,60.3c1.4,0,2.4,1.1,2.4,2.4c0,1.3-1.1,2.4-2.4,2.4
		c-1.3,0-2.4-1.1-2.4-2.4C75.1,61.4,76.2,60.3,77.5,60.3L77.5,60.3z"/>
	<path fill-rule="evenodd" clip-rule="evenodd" fill="#FFFFFF" d="M238,199.9c1.3,0,2.4,1.1,2.4,2.4c0,1.3-1.1,2.4-2.4,2.4
		c-1.4,0-2.4-1.1-2.4-2.4C235.6,200.9,236.7,199.9,238,199.9L238,199.9z"/>
	<path fill-rule="evenodd" clip-rule="evenodd" fill="#FFFFFF" d="M1418.4,57.9c1.3,0,2.4,1.1,2.4,2.4c0,1.3-1.1,2.4-2.4,2.4
		s-2.4-1.1-2.4-2.4C1416,58.9,1417.1,57.9,1418.4,57.9L1418.4,57.9z"/>
	<path fill-rule="evenodd" clip-rule="evenodd" fill="#FFFFFF" d="M1625.9,54.1c1.3,0,2.4,1.1,2.4,2.4c0,1.3-1.1,2.4-2.4,2.4
		s-2.4-1.1-2.4-2.4C1623.4,55.2,1624.5,54.1,1625.9,54.1L1625.9,54.1z"/>
	<path fill-rule="evenodd" clip-rule="evenodd" fill="#FFFFFF" d="M1723.4,230.7c1.3,0,2.4,1.1,2.4,2.4s-1.1,2.4-2.4,2.4
		s-2.4-1.1-2.4-2.4S1722.1,230.7,1723.4,230.7L1723.4,230.7z"/>
	<path fill-rule="evenodd" clip-rule="evenodd" fill="#FFFFFF" d="M1681.4,293.7c1.3,0,2.4,1.1,2.4,2.4c0,1.3-1.1,2.4-2.4,2.4
		c-1.3,0-2.4-1.1-2.4-2.4C1679,294.8,1680.1,293.7,1681.4,293.7L1681.4,293.7z"/>
	<path fill-rule="evenodd" clip-rule="evenodd" fill="#FFFFFF" d="M1491.3,86.2c1.3,0,2.4,1.1,2.4,2.5c0,1.3-1.1,2.4-2.4,2.4
		c-1.4,0-2.4-1.1-2.4-2.4C1488.8,87.3,1489.9,86.2,1491.3,86.2L1491.3,86.2z"/>
	<path fill-rule="evenodd" clip-rule="evenodd" fill="#FFFFFF" d="M1435.7,125.8c1.3,0,2.4,1.1,2.4,2.4c0,1.4-1.1,2.5-2.4,2.5
		s-2.4-1.1-2.4-2.5C1433.3,126.8,1434.4,125.8,1435.7,125.8L1435.7,125.8z"/>
	<path fill-rule="evenodd" clip-rule="evenodd" fill="#FFFFFF" d="M730.7,36.9c1.4,0,2.4,1.1,2.4,2.4c0,1.4-1.1,2.4-2.4,2.4
		c-1.3,0-2.4-1.1-2.4-2.4C728.2,37.9,729.3,36.9,730.7,36.9L730.7,36.9z"/>
	<path fill-rule="evenodd" clip-rule="evenodd" fill="#FFFFFF" d="M667.4,135.2c1.3,0,2.4,1.1,2.4,2.4c0,1.3-1.1,2.4-2.4,2.4
		c-1.3,0-2.4-1.1-2.4-2.4C665,136.3,666.1,135.2,667.4,135.2L667.4,135.2z"/>
	<path fill-rule="evenodd" clip-rule="evenodd" fill="#FFFFFF" d="M369.5,182.6c1.3,0,2.4,1.1,2.4,2.4s-1.1,2.4-2.4,2.4
		c-1.4,0-2.4-1.1-2.4-2.4S368.2,182.6,369.5,182.6L369.5,182.6z"/>
</g>
</svg>
